<?xml version="1.0" standalone="no"?>
<!DOCTYPE svg PUBLIC "-//W3C//DTD SVG 20010904//EN"
 "http://www.w3.org/TR/2001/REC-SVG-20010904/DTD/svg10.dtd">
<svg version="1.0" xmlns="http://www.w3.org/2000/svg"
 width="640.000000pt" height="640.000000pt" viewBox="0 0 640.000000 640.000000"
 preserveAspectRatio="xMidYMid meet">

<g transform="translate(0.000000,640.000000) scale(0.100000,-0.100000)"
fill="#000000" stroke="none">
<path d="M3227 6389 c-54 -195 -71 -247 -83 -259 -14 -13 -18 -12 -40 15 -14
17 -43 57 -65 90 -37 54 -41 65 -36 108 4 44 3 47 -19 47 -13 0 -24 -4 -24 -9
0 -14 -32 -23 -44 -11 -9 9 -86 15 -86 6 0 -2 6 -22 14 -44 14 -39 14 -40 -7
-36 -16 3 -13 0 9 -12 23 -12 43 -42 87 -130 31 -63 53 -114 48 -114 -9 0 -83
99 -118 158 -12 20 -39 67 -60 104 -21 38 -44 68 -50 68 -22 0 -15 -16 46
-107 32 -48 100 -171 151 -273 157 -311 230 -430 265 -430 13 0 55 -67 55 -86
0 -13 -58 9 -182 68 -122 58 -128 62 -129 92 l-1 31 -8 -30 c-4 -16 -8 -22 -9
-12 0 10 -5 15 -11 12 -13 -8 -32 3 -182 102 -116 75 -159 96 -158 76 1 -5 22
-18 48 -30 26 -13 61 -34 77 -48 29 -25 29 -26 5 -20 -40 10 -150 65 -210 105
-30 20 -86 55 -125 78 -63 38 -142 95 -105 76 13 -7 13 -5 1 9 -7 9 -25 17
-39 17 -31 0 -92 37 -92 56 0 8 4 14 9 14 5 0 9 15 8 33 -2 27 -6 32 -27 32
-14 0 -28 7 -32 15 -4 9 -7 4 -7 -15 -1 -20 6 -34 19 -43 23 -14 28 -44 5 -36
-8 4 -15 13 -15 21 0 8 -6 13 -12 11 -14 -5 -38 15 -38 31 0 6 -9 11 -21 11
-11 0 -29 5 -41 11 -39 21 -28 1 14 -24 24 -15 38 -26 31 -27 -16 0 -4 -37 14
-45 9 -3 25 -3 35 1 13 4 37 -6 71 -28 29 -19 102 -65 162 -103 61 -37 137
-85 170 -106 96 -61 202 -110 247 -117 24 -3 66 -20 93 -37 28 -18 62 -39 78
-49 15 -9 27 -24 27 -34 0 -12 3 -14 8 -4 6 9 42 -4 143 -52 74 -35 150 -71
171 -79 31 -13 43 -29 89 -118 29 -56 80 -142 113 -192 34 -49 68 -102 76
-116 9 -15 26 -38 39 -52 13 -13 30 -39 37 -56 8 -18 19 -32 25 -30 13 3 55
-50 46 -59 -11 -11 -127 119 -127 143 0 8 -4 12 -9 8 -5 -3 -31 20 -58 51 -26
31 -74 87 -105 123 -32 36 -58 69 -58 72 0 4 -14 22 -31 40 -18 19 -42 50 -54
69 -24 38 -76 89 -59 58 15 -28 205 -267 277 -349 37 -42 67 -79 67 -81 0 -3
18 -24 40 -47 22 -23 39 -45 38 -49 -1 -4 26 -36 60 -71 34 -36 62 -69 62 -75
0 -6 -18 -24 -40 -39 -40 -28 -100 -108 -119 -160 -6 -16 -11 -46 -11 -68 0
-41 -9 -48 -32 -26 -14 14 -85 17 -105 4 -6 -4 -14 -3 -18 2 -3 6 -12 8 -21 4
-8 -3 -24 3 -35 12 -26 25 -67 28 -71 7 -3 -15 -6 -14 -23 6 -19 22 -55 31
-55 13 0 -10 -246 -7 -271 4 -10 3 -20 2 -24 -4 -4 -7 -13 -8 -23 -2 -16 8
-180 22 -322 26 -36 2 -76 7 -90 13 -15 6 -32 6 -42 1 -10 -5 -19 -5 -23 0 -3
6 -13 10 -23 10 -62 2 -188 8 -192 10 -3 2 -34 3 -69 3 -57 0 -148 22 -161 40
-3 4 -21 9 -41 11 -19 2 -41 7 -48 12 -26 16 -172 16 -196 1 -23 -15 -83 -24
-187 -30 -32 -2 -64 -8 -71 -14 -8 -7 -17 -9 -20 -6 -3 4 -13 -1 -22 -10 -18
-18 -45 -22 -45 -6 0 11 -49 8 -69 -4 -6 -4 -34 -8 -62 -8 -27 1 -49 -3 -49
-9 0 -5 -12 -9 -28 -9 -15 0 -48 -11 -74 -25 -27 -14 -50 -25 -53 -25 -39 1
-56 -2 -69 -15 -8 -8 -23 -15 -33 -15 -11 0 -14 3 -7 8 9 5 8 10 -1 19 -10 10
-15 9 -21 -5 -4 -9 -7 -26 -6 -37 1 -15 -2 -14 -10 7 -6 14 -21 29 -32 32 -27
7 -32 0 -15 -21 13 -17 13 -17 -7 0 -12 10 -35 19 -52 20 -16 1 -28 5 -26 8 2
4 -6 15 -17 25 -12 11 -22 17 -23 15 0 -3 -10 0 -21 7 -17 10 -18 13 -5 22 9
6 10 10 3 10 -6 0 -15 -5 -18 -10 -5 -8 -11 -7 -21 1 -8 6 -14 8 -14 4 0 -3
-15 3 -33 14 -19 11 -37 18 -40 14 -4 -3 -7 -1 -7 6 0 7 -4 10 -9 7 -5 -4 -11
-1 -13 5 -2 6 -34 13 -72 15 -37 3 -65 1 -62 -4 3 -5 -1 -9 -9 -9 -8 0 -12 4
-10 8 7 10 -23 5 -34 -7 -4 -5 -31 -63 -59 -129 -115 -276 -187 -542 -228
-850 -29 -222 -21 -752 14 -845 3 -8 4 -19 3 -25 -2 -5 5 -49 14 -97 17 -83
19 -88 44 -89 23 -2 24 -2 4 -6 -13 -2 -23 -10 -23 -18 0 -21 49 -204 77 -285
31 -94 35 -104 33 -110 0 -3 14 -8 32 -11 30 -6 31 -7 11 -14 -13 -4 -23 -11
-23 -15 0 -18 31 -80 40 -80 6 0 10 -5 10 -11 0 -5 -4 -7 -10 -4 -14 9 110
-250 174 -362 81 -141 209 -328 226 -329 32 -3 34 -5 21 -13 -15 -10 18 -59
114 -166 30 -33 70 -79 91 -103 20 -23 43 -42 51 -42 8 0 12 -4 9 -8 -3 -5 38
-48 90 -96 75 -68 99 -85 109 -76 11 9 12 7 9 -8 -7 -23 96 -106 293 -238 205
-136 604 -337 633 -319 6 3 10 2 10 -4 0 -13 259 -97 355 -115 17 -3 68 -15
115 -26 47 -10 119 -24 160 -30 65 -9 76 -8 86 5 7 9 14 12 15 6 2 -5 13 -11
24 -13 11 -1 23 -7 28 -13 4 -6 12 -3 21 7 7 10 23 18 34 18 11 0 24 4 27 10
8 13 -60 40 -102 40 -28 0 -34 3 -29 16 3 9 6 18 6 20 0 3 5 2 10 -1 6 -4 18
-1 26 6 19 16 57 -3 85 -43 18 -25 19 -30 5 -57 l-16 -29 108 -7 c137 -10 405
0 552 20 382 52 682 142 1018 306 l182 89 0 60 c0 36 4 60 11 60 5 0 7 -5 3
-11 -3 -6 -2 -14 5 -18 7 -5 8 -17 2 -38 -9 -31 -9 -32 16 -22 27 10 165 97
173 109 3 4 19 14 35 23 53 28 152 112 148 125 -3 7 1 10 10 6 38 -14 521 465
501 497 -3 5 2 9 10 9 16 0 21 12 9 23 -3 4 -13 1 -22 -6 -14 -10 -14 -10 -3
4 7 10 21 15 32 12 13 -3 20 0 20 8 0 8 9 20 20 27 25 15 26 29 3 36 -11 3 -9
4 6 3 17 -2 30 8 48 36 l24 37 -22 8 c-17 7 -18 10 -7 19 7 6 24 13 37 15 18
2 36 22 68 73 24 38 41 76 38 82 -2 7 1 13 8 13 16 0 50 67 42 81 -4 5 1 9 9
9 10 0 16 9 16 26 0 14 4 23 9 20 4 -3 29 38 54 92 36 75 43 98 31 100 -8 2
-12 7 -9 12 3 5 12 7 19 4 14 -5 37 48 101 236 40 120 51 175 33 165 -7 -3 -6
-1 3 7 19 16 32 54 58 178 28 131 51 294 61 425 10 133 4 487 -10 570 -6 33
-12 83 -15 110 -15 158 -91 460 -171 682 -29 78 -23 75 -114 71 -54 -2 -130 2
-130 7 0 6 74 172 80 180 4 6 10 21 14 35 3 14 -20 -30 -53 -96 l-59 -122 -43
8 c-52 10 -48 10 -76 -1 -14 -5 -23 -5 -23 1 0 6 -9 10 -20 10 -11 0 -20 -4
-20 -9 0 -5 -12 -10 -27 -10 -16 -1 -35 -2 -43 -2 -8 -1 -35 4 -60 10 -65 17
-138 22 -145 11 -3 -6 -12 -10 -18 -10 -7 0 -6 4 3 10 10 6 11 10 3 10 -7 0
-13 10 -14 23 -1 18 -2 17 -9 -7 -5 -16 -7 -34 -4 -40 3 -6 -1 -3 -9 7 -8 9
-23 17 -33 17 -14 0 -15 -3 -6 -8 9 -6 -1 -13 -28 -22 -36 -12 -43 -12 -51 1
-7 12 -9 12 -9 0 0 -8 -3 -12 -6 -8 -3 3 2 30 12 59 10 29 19 58 20 63 1 6 14
41 28 79 14 37 26 73 25 80 0 14 -70 -160 -94 -237 -10 -31 -21 -57 -26 -57
-5 0 -5 7 -2 17 4 10 2 14 -4 10 -20 -12 -1 48 21 65 l21 17 -24 -6 -24 -6 5
79 c49 746 65 1038 57 1047 -4 5 -10 -40 -13 -100 -4 -59 -11 -155 -16 -213
-5 -58 -9 -130 -9 -160 0 -100 -21 -404 -32 -465 -6 -33 -10 -98 -9 -145 1
-76 -1 -88 -20 -105 -21 -19 -21 -19 -27 3 -3 12 -12 22 -19 22 -8 0 -14 9
-14 21 0 11 -8 23 -17 26 -10 2 -34 25 -53 51 -19 26 -55 68 -79 95 -44 47
-44 47 -25 70 l19 22 -22 -18 c-18 -16 -25 -17 -45 -7 -13 7 -1 -7 26 -31 64
-57 157 -180 146 -194 -4 -5 -10 -21 -12 -35 l-4 -25 -12 28 c-9 21 -18 27
-44 27 l-32 0 28 -29 c19 -19 23 -30 15 -33 -9 -3 -7 -6 5 -11 10 -4 15 -3 11
3 -8 13 -2 13 30 -2 37 -17 31 -25 -26 -32 -42 -6 -53 -4 -63 10 -12 16 -14
16 -38 0 -23 -15 -27 -15 -41 -1 -20 19 -44 19 -81 0 -15 -8 -30 -15 -31 -15
-2 0 -3 29 -4 64 0 45 4 67 14 76 8 7 15 17 15 22 0 6 -5 6 -14 -1 -11 -9 -14
-1 -15 46 0 31 -3 59 -6 61 -12 12 -16 -12 -17 -102 -1 -96 -1 -97 -29 -112
-36 -18 -45 -18 -29 2 13 14 23 64 14 64 -2 0 -10 -16 -19 -36 -8 -19 -24 -43
-36 -53 -19 -16 -20 -18 -6 -24 10 -4 17 -2 17 4 0 9 17 18 68 33 18 6 22 3
22 -13 0 -22 -30 -36 -59 -26 -11 3 -22 1 -26 -5 -4 -7 -12 -7 -26 1 -15 8
-24 7 -35 -2 -8 -7 -28 -13 -45 -13 -26 -1 -31 4 -39 35 -5 19 -9 53 -9 75 1
21 -2 165 -6 320 -6 268 -6 281 12 286 10 3 26 9 36 13 15 6 16 4 7 -20 -6
-15 -9 -30 -6 -32 2 -2 8 10 14 26 6 17 50 70 99 118 65 65 98 107 126 163 22
43 30 64 18 50 -11 -14 -21 -29 -21 -35 -1 -20 -62 -101 -123 -163 -52 -53
-63 -60 -69 -45 -6 15 -7 15 -7 -4 -1 -23 -44 -53 -76 -53 -13 0 -19 38 -17
120 0 3 3 24 7 48 4 25 3 42 -3 42 -5 0 -12 -21 -15 -47 -4 -27 -9 -59 -12
-73 -4 -14 -11 -55 -17 -92 -7 -38 -16 -68 -22 -68 -6 0 -28 5 -49 11 -22 6
-41 8 -44 6 -2 -3 21 -11 51 -18 43 -9 55 -16 52 -28 -3 -9 -8 -32 -11 -51 -4
-19 -17 -45 -28 -58 -17 -19 -18 -22 -4 -16 22 8 22 -24 2 -121 -9 -38 -17
-95 -19 -125 -5 -64 -15 -110 -25 -110 -4 0 -17 23 -28 50 -19 45 -20 52 -6
65 8 8 19 13 24 10 12 -8 11 6 -1 25 -8 12 -10 12 -10 1 0 -8 -3 -11 -7 -8 -3
4 -12 -1 -19 -11 -12 -16 -14 -16 -28 3 -9 11 -14 28 -12 38 2 9 0 17 -6 17
-5 0 -8 10 -7 23 2 12 0 27 -3 32 -4 6 -14 68 -24 139 -23 162 -20 168 66 153
19 -4 6 3 -30 14 -36 12 -67 23 -69 24 -6 7 -31 128 -45 225 -33 220 -38 245
-45 253 -4 4 3 -64 17 -150 18 -121 21 -165 13 -188 -9 -26 -9 -28 3 -12 12
16 14 14 19 -20 4 -21 9 -53 13 -71 7 -32 6 -33 -22 -28 -27 5 -27 5 3 -5 34
-12 36 -20 72 -264 6 -38 13 -85 17 -104 l7 -34 -46 27 c-58 35 -206 96 -229
96 -22 0 -22 3 -2 41 8 17 13 33 11 35 -2 3 -10 -9 -17 -26 -15 -37 -25 -38
-44 -2 -9 18 -15 72 -17 170 l-4 143 30 -5 c30 -5 30 -5 -2 6 l-33 11 0 113
c0 108 1 113 25 132 39 31 107 118 158 205 26 43 47 81 47 85 0 4 20 52 44
107 57 131 136 342 136 363 -1 10 -12 -12 -26 -48 -63 -169 -157 -390 -165
-390 -5 0 -9 -7 -9 -15 0 -41 -107 -210 -169 -270 -52 -49 -49 -75 -77 514
-12 269 -13 335 -3 342 9 5 3 10 -17 14 -16 4 -35 9 -43 11 -11 4 -12 -13 -6
-93 11 -149 32 -637 28 -645 -2 -5 -21 3 -41 17 -20 14 -41 25 -45 25 -5 0 13
-15 39 -32 49 -33 49 -33 52 -93 l2 -60 -21 25 c-22 27 -16 11 11 -30 12 -18
19 -55 23 -128 5 -92 3 -103 -11 -97 -14 5 -14 4 1 -13 13 -15 17 -37 16 -108
l-1 -89 -18 50 c-10 28 -19 46 -20 40 0 -5 -17 21 -36 58 -21 41 -33 76 -29
87 12 38 14 60 4 60 -5 0 -9 -6 -8 -12 1 -7 0 -22 -1 -33 -1 -15 -7 -10 -21
20 -11 23 -17 51 -14 65 4 18 3 21 -4 10 -8 -12 -12 -9 -20 13 -6 16 -11 34
-11 40 0 7 -12 44 -25 82 -14 39 -36 135 -50 214 -13 79 -27 146 -30 149 -9 9
-6 -30 10 -118 19 -108 19 -108 -7 -74 -12 16 -26 34 -31 39 -15 15 3 -15 31
-53 14 -18 34 -63 44 -100 11 -37 22 -76 26 -87 5 -18 4 -19 -14 -5 -10 8 -6
0 9 -18 15 -19 28 -40 28 -48 2 -22 3 -25 46 -123 12 -29 23 -65 23 -79 0 -14
3 -22 7 -18 4 3 33 -46 65 -109 57 -114 58 -118 57 -198 l-1 -82 -13 45 c-29
100 -80 214 -153 344 l-45 78 17 32 18 31 -20 -25 c-12 -14 -22 -23 -25 -20
-28 35 -167 292 -167 310 0 18 -3 21 -9 12 -6 -10 -26 16 -71 89 -67 111 -84
164 -56 175 9 3 14 10 11 14 -3 4 2 13 10 20 8 7 12 17 9 22 -3 5 -17 0 -30
-13 -29 -27 -26 -34 -52 141 -34 221 -34 220 -20 220 9 0 10 3 2 8 -6 4 -14
14 -17 22 -8 19 1 -116 13 -190 15 -95 31 -184 36 -212 10 -51 -19 -31 -74 49
l-52 78 32 8 c41 11 54 22 28 24 -11 1 -22 -2 -25 -8 -11 -17 -44 -9 -60 14
-18 28 -14 59 18 157 32 98 51 180 43 187 -3 3 -7 0 -9 -8z m-208 -227 c29
-41 50 -76 47 -79 -14 -14 -37 12 -75 82 -63 117 -56 116 28 -3z m-944 -92 c3
-6 -1 -7 -9 -4 -18 7 -21 14 -7 14 6 0 13 -4 16 -10z m1031 -24 c7 -6 268
-404 293 -446 17 -30 50 -84 71 -119 61 -96 226 -390 270 -481 56 -112 52
-123 -20 -59 -43 39 -62 65 -70 94 -6 22 -15 49 -21 60 -8 18 -9 17 -4 -5 3
-14 8 -36 12 -50 6 -23 5 -24 -12 -10 -21 17 -93 167 -120 248 -9 29 -19 52
-21 49 -7 -7 36 -129 68 -191 21 -39 -10 -4 -55 62 -51 75 -190 332 -202 372
-4 14 -11 27 -15 30 -4 3 -33 59 -64 125 -32 66 -78 159 -102 206 -24 48 -44
94 -44 103 0 10 -4 14 -10 11 -5 -3 -10 -1 -10 5 0 8 46 5 56 -4z m-126 -55
c0 -18 -4 -14 -24 29 l-17 35 20 -25 c11 -14 21 -31 21 -39z m86 -96 c84 -165
142 -295 133 -295 -23 0 -227 359 -212 374 18 18 42 -6 79 -79z m1440 -883
c-12 -11 -14 4 -8 53 l7 50 3 -49 c2 -26 1 -51 -2 -54z m-246 39 c0 -6 -4 -13
-10 -16 -5 -3 -10 1 -10 9 0 9 5 16 10 16 6 0 10 -4 10 -9z m252 -249 c0 -97
2 -237 5 -309 3 -73 3 -133 1 -133 -18 0 -73 39 -74 53 -3 36 -4 39 -20 33
-14 -5 -15 0 -10 36 3 24 8 67 12 95 5 39 11 54 25 58 23 7 25 25 4 25 -19 0
-19 6 6 169 24 159 26 164 39 156 7 -4 11 -72 12 -183z m-797 -10 c27 -20 56
-62 50 -72 -7 -11 -22 2 -69 58 -14 16 -16 22 -5 22 8 0 19 -4 24 -8z m-3285
-242 c0 -5 -9 -6 -20 -3 -11 3 -20 9 -20 13 0 5 9 6 20 3 11 -3 20 -9 20 -13z
m35 0 c3 -6 -1 -7 -9 -4 -18 7 -21 14 -7 14 6 0 13 -4 16 -10z m218 -236 c-7
-3 -9 -13 -6 -22 5 -13 3 -14 -7 -5 -14 13 -5 33 13 32 9 0 9 -2 0 -5z m74
-20 c-3 -3 -12 -4 -19 -1 -8 3 -5 6 6 6 11 1 17 -2 13 -5z m-127 -14 c0 -5 -7
-10 -15 -10 -8 0 -15 5 -15 10 0 6 7 10 15 10 8 0 15 -4 15 -10z m-291 -57 c2
-1 -5 -1 -16 0 -11 0 -20 7 -20 14 0 10 4 10 16 1 9 -7 18 -13 20 -15z m231
17 c0 -5 -2 -10 -4 -10 -3 0 -8 5 -11 10 -3 6 -1 10 4 10 6 0 11 -4 11 -10z
m3947 -32 c-3 -8 -6 -5 -6 6 -1 11 2 17 5 13 3 -3 4 -12 1 -19z m157 -26 c3
-5 -1 -9 -9 -9 -8 0 -15 4 -15 9 0 4 4 8 9 8 6 0 12 -4 15 -8z m-246 -21 c3
-8 -1 -12 -9 -9 -7 2 -15 10 -17 17 -3 8 1 12 9 9 7 -2 15 -10 17 -17z m212
-13 c0 -24 -3 -29 -9 -18 -6 8 -7 18 -5 22 3 4 -1 8 -8 8 -9 0 -9 3 2 10 21
13 20 14 20 -22z m1045 22 c3 -5 1 -10 -4 -10 -6 0 -11 5 -11 10 0 6 2 10 4
10 3 0 8 -4 11 -10z m-1093 -22 c13 2 16 -1 12 -13 -4 -9 -10 -13 -13 -8 -3 4
-13 8 -21 8 -8 0 -16 9 -18 20 -2 18 -1 18 10 5 7 -9 21 -14 30 -12z m415 -30
c-3 -8 -6 -5 -6 6 -1 11 2 17 5 13 3 -3 4 -12 1 -19z m-1502 2 c-3 -5 -12 -10
-18 -10 -7 0 -6 4 3 10 19 12 23 12 15 0z m948 -22 c3 -10 4 -18 3 -18 -2 0
-10 8 -19 18 -14 15 -14 19 -3 19 8 0 17 -9 19 -19z m80 -75 c-7 -2 -21 -2
-30 0 -10 3 -4 5 12 5 17 0 24 -2 18 -5z m44 1 c-3 -3 -12 -4 -19 -1 -8 3 -5
6 6 6 11 1 17 -2 13 -5z m-57 -81 c-11 -17 -11 -17 -6 0 3 10 7 28 7 40 2 22
2 22 6 0 2 -12 -1 -30 -7 -40z m1270 33 c0 -2 -8 -10 -17 -17 -16 -13 -17 -12
-4 4 13 16 21 21 21 13z m-49 -59 c-10 -9 -11 -8 -5 6 3 10 9 15 12 12 3 -3 0
-11 -7 -18z m-1244 -33 c-3 -3 -12 -4 -19 -1 -8 3 -5 6 6 6 11 1 17 -2 13 -5z
m214 -21 c13 -16 12 -17 -3 -4 -17 13 -22 21 -14 21 2 0 10 -8 17 -17z m1589
3 c0 -2 -8 -10 -17 -17 -16 -13 -17 -12 -4 4 13 16 21 21 21 13z m-55 -36 c-3
-5 -12 -10 -18 -10 -7 0 -6 4 3 10 19 12 23 12 15 0z m-1410 -10 c-3 -5 -12
-10 -18 -10 -7 0 -6 4 3 10 19 12 23 12 15 0z m-2298 -26 c-3 -3 -12 -4 -19
-1 -8 3 -5 6 6 6 11 1 17 -2 13 -5z m3723 -22 c0 -17 -28 -45 -38 -38 -9 5 -8
12 1 26 12 20 37 28 37 12z m-1450 -65 c0 -16 -21 5 -36 36 l-16 32 26 -30
c14 -16 25 -34 26 -38z m778 -1 c-2 -1 -12 -8 -22 -16 -18 -14 -18 -14 -6 7 8
12 18 19 23 16 4 -3 7 -6 5 -7z m572 -6 c0 -5 -10 -10 -22 -9 -22 0 -22 1 -3
9 11 5 21 9 23 9 1 1 2 -3 2 -9z m-4355 -20 c-3 -5 2 -10 11 -10 10 0 15 -3
11 -6 -10 -10 -39 5 -32 16 3 5 8 10 11 10 3 0 2 -4 -1 -10z m3012 -22 c-3 -7
-5 -2 -5 12 0 14 2 19 5 13 2 -7 2 -19 0 -25z m868 14 c-3 -3 -11 0 -18 7 -9
10 -8 11 6 5 10 -3 15 -9 12 -12z m425 9 c0 -5 -7 -11 -14 -14 -10 -4 -13 -1
-9 9 6 15 23 19 23 5z m115 -30 c-6 -5 -25 10 -25 20 0 5 6 4 14 -3 8 -7 12
-15 11 -17z m-470 8 c11 -17 -1 -21 -15 -4 -8 9 -8 15 -2 15 6 0 14 -5 17 -11z
m79 -44 c9 -14 15 -25 13 -25 -2 0 -14 11 -27 25 -13 14 -19 25 -13 25 6 0 18
-11 27 -25z m-1001 -15 c3 -11 1 -18 -4 -14 -5 3 -9 12 -9 20 0 20 7 17 13 -6z
m667 7 c0 -2 -10 -12 -22 -23 l-23 -19 19 23 c18 21 26 27 26 19z m563 -9 c-6
-11 -31 -10 -37 1 -3 5 5 8 18 7 13 0 22 -4 19 -8z m-3593 -8 c0 -5 -2 -10 -4
-10 -3 0 -8 5 -11 10 -3 6 -1 10 4 10 6 0 11 -4 11 -10z m685 -10 c-3 -5 -12
-10 -18 -10 -7 0 -6 4 3 10 19 12 23 12 15 0z m2845 6 c0 -3 -4 -8 -10 -11 -5
-3 -10 -1 -10 4 0 6 5 11 10 11 6 0 10 -2 10 -4z m-22 -36 c8 0 13 -3 9 -6 -3
-4 -18 -3 -34 0 -21 6 -24 9 -12 16 8 6 15 6 17 0 2 -6 11 -10 20 -10z m76 2
c-6 -4 -13 -15 -17 -24 -7 -20 -27 -24 -27 -6 0 6 -7 3 -15 -8 -11 -13 -14
-14 -13 -4 2 8 17 22 33 31 30 17 59 25 39 11z m-147 -42 c-4 -19 -2 -30 5
-30 6 0 8 -3 5 -7 -4 -3 -2 -12 4 -19 8 -9 5 -11 -10 -7 -12 3 -17 11 -14 19
4 10 0 12 -11 8 -21 -8 -20 5 2 23 9 8 12 12 5 9 -6 -3 -22 -1 -35 4 -22 10
-22 10 5 6 18 -2 31 2 34 10 9 25 16 15 10 -16z m368 12 c-3 -3 -11 0 -18 7
-9 10 -8 11 6 5 10 -3 15 -9 12 -12z m-181 2 c22 -8 20 -24 -2 -24 -10 0 -24
-6 -31 -12 -8 -7 -12 -8 -9 -3 3 6 8 18 11 28 7 19 9 20 31 11z m-2534 -14 c0
-5 -8 -10 -17 -10 -15 0 -16 2 -3 10 19 12 20 12 20 0z m2251 -13 c-6 -8 -8
-17 -4 -20 3 -4 2 -7 -4 -7 -19 0 -22 13 -5 26 22 17 27 17 13 1z m226 -3 c-3
-3 -12 -4 -19 -1 -8 3 -5 6 6 6 11 1 17 -2 13 -5z m194 -27 c-10 -9 -11 -8 -5
6 3 10 9 15 12 12 3 -3 0 -11 -7 -18z m-841 9 c0 -2 -8 -10 -17 -17 -16 -13
-17 -12 -4 4 13 16 21 21 21 13z m213 -31 c-3 -9 -8 -14 -10 -11 -3 3 -2 9 2
15 9 16 15 13 8 -4z m484 9 c-3 -3 -12 -4 -19 -1 -8 3 -5 6 6 6 11 1 17 -2 13
-5z m-2877 -24 c-8 -5 -22 -9 -30 -9 -10 0 -8 3 5 9 27 12 43 12 25 0z m834
-89 c-9 -11 -24 15 -23 42 l1 32 12 -35 c8 -19 12 -37 10 -39z m1006 65 c0 -2
-8 -10 -17 -17 -16 -13 -17 -12 -4 4 13 16 21 21 21 13z m-441 -22 c13 -12 -8
-10 -29 2 l-25 15 25 -7 c14 -3 27 -8 29 -10z m1011 -19 c0 -5 -5 -3 -10 5 -5
8 -10 20 -10 25 0 6 5 3 10 -5 5 -8 10 -19 10 -25z m-1473 -12 c3 -8 1 -19 -6
-26 -8 -8 -11 -7 -11 5 0 22 -19 33 -32 20 -8 -8 -17 -8 -32 1 -20 11 -20 11
9 17 38 8 65 1 72 -17z m843 -8 c-7 -9 -15 -13 -19 -10 -3 3 1 10 9 15 21 14
24 12 10 -5z m740 -30 c-7 -9 -15 -13 -17 -11 -7 7 7 26 19 26 6 0 6 -6 -2
-15z m-849 -18 c-10 -9 -11 -8 -5 6 3 10 9 15 12 12 3 -3 0 -11 -7 -18z m379
19 c0 -2 -8 -10 -17 -17 -16 -13 -17 -12 -4 4 13 16 21 21 21 13z m1100 -22
c0 -2 -11 -4 -25 -4 -14 0 -25 4 -25 9 0 4 11 6 25 3 14 -2 25 -6 25 -8z
m-180 -12 c0 -5 -7 -9 -15 -9 -8 0 -12 4 -9 9 3 4 9 8 15 8 5 0 9 -4 9 -8z
m-3220 -5 c0 -2 -10 -12 -22 -23 l-23 -19 19 23 c18 21 26 27 26 19z m1937 -3
c-3 -3 -12 -4 -19 -1 -8 3 -5 6 6 6 11 1 17 -2 13 -5z m281 -19 c-3 -3 -9 2
-12 12 -6 14 -5 15 5 6 7 -7 10 -15 7 -18z m772 14 c0 -3 -18 -6 -40 -6 -22 0
-40 3 -40 7 0 4 18 7 40 6 22 0 40 -3 40 -7z m-740 -12 c0 -2 -10 -12 -22 -23
l-23 -19 19 23 c18 21 26 27 26 19z m610 -12 c9 -11 16 -13 24 -5 5 5 17 10
26 9 8 0 4 -5 -10 -11 -14 -6 -29 -10 -34 -9 -5 1 -17 -6 -27 -15 -21 -19 -27
-6 -7 14 15 15 3 16 -23 2 -10 -6 -19 -7 -19 -3 0 7 34 28 51 32 4 0 12 -6 19
-14z m-816 -24 c4 -5 -1 -8 -9 -7 -21 3 -31 16 -12 16 9 0 18 -4 21 -9z m1232
-8 c-2 -10 4 -21 13 -25 13 -6 12 -7 -3 -5 -19 2 -35 47 -17 47 5 0 8 -8 7
-17z m-549 -61 c-4 -13 -5 -12 -6 5 0 12 -5 25 -11 28 -5 3 -10 11 -10 18 0 6
7 1 16 -11 8 -12 13 -30 11 -40z m-3190 6 c-3 -8 -6 -5 -6 6 -1 11 2 17 5 13
3 -3 4 -12 1 -19z m2633 8 c0 -2 -8 -10 -17 -17 -16 -13 -17 -12 -4 4 13 16
21 21 21 13z m-2810 -25 c0 -12 -26 -32 -33 -25 -6 7 14 33 26 34 4 0 7 -4 7
-9z m3731 -10 c-11 -7 -11 -10 0 -15 8 -3 4 -3 -9 0 -14 3 -33 -2 -51 -15 -35
-25 -42 -26 -35 -6 4 8 14 15 24 15 11 0 22 5 26 11 5 8 -3 10 -25 7 -17 -2
-31 -1 -31 4 0 4 26 8 58 8 36 0 52 -4 43 -9z m-631 -25 c0 -11 -19 -15 -25
-6 -3 5 1 10 9 10 9 0 16 -2 16 -4z m323 -79 c3 -9 3 -17 -1 -17 -8 0 -42 79
-42 95 1 10 29 -43 43 -78z m-3370 46 c3 -5 -6 -9 -20 -10 -19 -1 -22 1 -12 8
17 11 26 11 32 2z m3493 -15 c4 -7 4 -10 -1 -6 -4 4 -15 2 -24 -5 -14 -11 -14
-10 -2 6 16 20 18 21 27 5z m-3631 -8 c-3 -5 -12 -10 -18 -10 -7 0 -6 4 3 10
19 12 23 12 15 0z m3796 -8 c-7 -2 -18 1 -23 6 -8 8 -4 9 13 5 13 -4 18 -8 10
-11z m-4047 -10 c3 -5 -1 -9 -9 -9 -8 0 -15 4 -15 9 0 4 4 8 9 8 6 0 12 -4 15
-8z m3836 2 c0 -3 -7 -12 -15 -20 -13 -14 -15 -13 -15 5 0 12 6 21 15 21 8 0
15 -3 15 -6z m35 -4 c-3 -5 1 -10 11 -10 13 0 14 -3 4 -15 -10 -12 -9 -15 6
-16 11 0 14 -3 6 -6 -7 -3 -20 1 -30 8 -9 7 -14 10 -10 5 9 -10 -20 -41 -30
-32 -3 4 -2 10 3 14 6 4 11 14 13 22 4 16 21 40 29 40 2 0 1 -4 -2 -10z m100
-10 c-3 -5 -10 -10 -16 -10 -5 0 -9 5 -9 10 0 6 7 10 16 10 8 0 12 -4 9 -10z
m-5414 -10 c5 0 9 -4 9 -10 0 -5 -9 -10 -20 -10 -11 0 -20 5 -20 11 0 5 -5 7
-12 3 -7 -5 -8 -3 -4 5 5 7 15 10 23 7 8 -3 19 -6 24 -6z m5379 0 c0 -5 -8
-10 -17 -10 -15 0 -16 2 -3 10 19 12 20 12 20 0z m-3710 -10 c0 -5 -5 -10 -11
-10 -5 0 -7 5 -4 10 3 6 8 10 11 10 2 0 4 -4 4 -10z m3375 1 c3 -5 2 -12 -3
-15 -5 -3 -9 1 -9 9 0 17 3 19 12 6z m-3228 -7 c-3 -3 -12 -4 -19 -1 -8 3 -5
6 6 6 11 1 17 -2 13 -5z m3363 -6 c0 -5 4 -7 9 -3 5 3 12 1 15 -4 3 -5 -3 -11
-14 -14 -11 -3 -18 -1 -14 4 8 13 -6 10 -50 -10 -26 -12 -34 -21 -25 -25 15
-6 -43 -1 -76 7 -11 3 -24 6 -28 6 -5 1 -6 5 -2 10 7 12 45 10 45 -2 0 -11 52
1 60 13 12 20 80 35 80 18z m296 -14 c-4 -9 -9 -15 -11 -12 -3 3 -3 13 1 22 4
9 9 15 11 12 3 -3 3 -13 -1 -22z m-582 -15 c-5 -8 2 -10 21 -6 38 7 62 -2 43
-15 -9 -7 -7 -8 10 -5 12 3 20 2 17 -3 -3 -4 -16 -10 -30 -13 -19 -3 -25 -1
-21 9 3 8 1 14 -4 14 -6 0 -10 -5 -10 -11 0 -5 -4 -7 -10 -4 -5 3 -10 1 -10
-5 0 -7 -7 -10 -15 -6 -8 3 -15 1 -15 -4 0 -6 -4 -10 -10 -10 -17 0 -11 48 8
59 23 14 35 14 26 0z m454 -7 c2 -8 -3 -10 -15 -5 -15 6 -16 4 -6 -9 7 -8 10
-18 6 -21 -3 -4 -12 2 -20 13 -8 11 -21 17 -31 14 -9 -2 -3 2 13 10 33 17 47
16 53 -2z m-3638 -2 c0 -5 -2 -10 -4 -10 -3 0 -8 5 -11 10 -3 6 -1 10 4 10 6
0 11 -4 11 -10z m-50 -16 c0 -2 -7 -4 -15 -4 -8 0 -15 4 -15 10 0 5 7 7 15 4
8 -4 15 -8 15 -10z m3564 -17 c4 -15 -1 -27 -17 -40 -40 -32 -54 -37 -54 -21
0 7 6 14 13 14 7 0 16 4 19 10 3 6 -1 7 -9 4 -9 -3 -29 -1 -46 4 -29 11 -35 6
-31 -20 0 -5 -5 -7 -11 -5 -8 1 -12 -6 -10 -18 2 -15 0 -17 -6 -6 -7 9 -11 10
-17 2 -3 -7 -15 -9 -26 -6 -11 4 -19 3 -18 -2 3 -18 -2 -33 -11 -33 -5 0 -10
11 -10 25 0 18 5 25 19 25 11 0 23 5 26 11 4 6 13 8 20 5 8 -3 21 6 29 19 16
24 16 24 -14 19 -19 -4 -30 -2 -30 5 0 13 56 15 65 2 6 -10 37 -7 56 5 6 3 15
1 19 -6 5 -8 9 -7 13 4 4 11 1 16 -11 16 -14 0 -14 2 -3 9 20 13 38 4 45 -22z
m-384 3 c0 -13 -5 -18 -15 -14 -11 5 -12 9 -2 20 16 18 17 17 17 -6z m580 10
c0 -5 -4 -10 -10 -10 -5 0 -10 5 -10 10 0 6 5 10 10 10 6 0 10 -4 10 -10z m15
-30 c-3 -5 -14 -10 -23 -10 -15 0 -15 2 -2 10 20 13 33 13 25 0z m-3771 -18
c2 -4 -4 -8 -15 -8 -10 0 -19 4 -19 8 0 4 6 8 14 8 8 0 17 -4 20 -8z m3756
-12 c0 -5 -5 -10 -11 -10 -5 0 -7 5 -4 10 3 6 8 10 11 10 2 0 4 -4 4 -10z
m160 -9 c0 -4 -19 -25 -42 -46 -25 -25 -35 -31 -25 -15 21 31 22 44 1 36 -9
-3 -12 -2 -8 5 3 6 15 8 26 6 15 -4 17 -3 8 8 -8 10 -7 14 2 18 15 5 38 -2 38
-12z m-3770 -1 c0 -5 -5 -10 -11 -10 -5 0 -7 5 -4 10 3 6 8 10 11 10 2 0 4 -4
4 -10z m3021 -4 c-18 -10 -20 -15 -10 -19 8 -3 9 -6 2 -6 -14 -1 -26 16 -19
27 2 4 15 8 28 9 l23 2 -24 -13z m543 -11 c-9 -14 -21 -22 -26 -18 -6 3 -1 14
13 24 31 24 33 24 13 -6z m-464 6 c0 -6 -4 -12 -8 -15 -5 -3 -9 1 -9 9 0 8 4
15 9 15 4 0 8 -4 8 -9z m580 5 c0 -2 -7 -7 -16 -10 -8 -3 -12 -2 -9 4 6 10 25
14 25 6z m324 -18 c-3 -4 -14 -8 -24 -8 -10 0 -21 -6 -23 -12 -4 -8 -6 -7 -6
4 -1 11 -7 15 -21 11 -11 -3 -20 -1 -20 5 0 6 21 10 50 10 27 -1 47 -5 44 -10z
m-154 -24 c0 -8 -6 -11 -17 -7 -10 4 -14 2 -10 -4 3 -5 0 -10 -8 -10 -13 0
-13 3 0 17 8 9 12 20 8 24 -4 4 0 4 10 0 9 -3 17 -12 17 -20z m-813 0 c-3 -3
-12 -4 -19 -1 -8 3 -5 6 6 6 11 1 17 -2 13 -5z m-3277 -84 c-8 -5 -24 -9 -35
-9 -16 1 -16 2 5 9 35 11 48 11 30 0z m120 -54 c0 -2 -7 -6 -15 -10 -8 -3 -15
-1 -15 4 0 6 7 10 15 10 8 0 15 -2 15 -4z m3725 -16 c-3 -6 -21 -17 -38 -26
l-32 -17 24 27 c23 25 59 37 46 16z m185 -10 c0 -5 -5 -10 -11 -10 -5 0 -7 5
-4 10 3 6 8 10 11 10 2 0 4 -4 4 -10z m-4085 -10 c3 -6 -4 -10 -17 -10 -18 0
-20 2 -8 10 19 12 18 12 25 0z m3785 0 c0 -5 -4 -10 -10 -10 -5 0 -10 5 -10
10 0 6 5 10 10 10 6 0 10 -4 10 -10z m-4464 -43 c1 -9 -2 -17 -7 -17 -5 0 -9
5 -9 12 0 6 -8 21 -17 32 -18 20 -18 20 6 5 13 -8 25 -23 27 -32z m-789 -29
c-2 -13 -4 -5 -4 17 -1 22 1 32 4 23 2 -10 2 -28 0 -40z m5598 22 c3 -5 -1
-10 -10 -10 -9 0 -13 5 -10 10 3 6 8 10 10 10 2 0 7 -4 10 -10z m-4128 -6 c-3
-3 -12 -4 -19 -1 -8 3 -5 6 6 6 11 1 17 -2 13 -5z m3678 -14 c-3 -5 -11 -10
-16 -10 -6 0 -7 5 -4 10 3 6 11 10 16 10 6 0 7 -4 4 -10z m102 -15 c0 -8 -4
-15 -9 -15 -10 0 -11 14 -1 23 9 10 10 9 10 -8z m310 -10 c0 -8 -4 -15 -8 -15
-11 0 -20 16 -12 24 11 11 20 7 20 -9z m-5560 -27 c-3 -8 -6 -5 -6 6 -1 11 2
17 5 13 3 -3 4 -12 1 -19z m5473 17 c0 -3 -12 -16 -26 -28 -24 -21 -25 -24
-10 -36 11 -9 16 -10 16 -2 0 6 5 11 11 11 8 0 7 -5 -1 -15 -12 -14 -15 -14
-31 1 -18 16 -18 18 4 45 20 26 37 36 37 24z m-5873 -11 c-3 -3 -12 -4 -19 -1
-8 3 -5 6 6 6 11 1 17 -2 13 -5z m6030 -16 c-3 -8 -6 -5 -6 6 -1 11 2 17 5 13
3 -3 4 -12 1 -19z m54 12 c5 0 9 -4 9 -10 0 -14 -13 -12 -36 6 -17 14 -17 15
-1 10 10 -3 23 -6 28 -6z m33 -6 c3 -8 2 -12 -4 -9 -6 3 -10 10 -10 16 0 14 7
11 14 -7z m-6038 -15 c19 -22 19 -22 -3 -10 -13 6 -23 16 -23 21 0 15 5 12 26
-11z m1904 -3 c0 -2 -13 -6 -29 -8 -17 -2 -28 -1 -25 4 5 8 54 12 54 4z m-110
-37 c0 -5 -4 -7 -10 -4 -5 3 -10 1 -10 -6 0 -7 -3 -10 -6 -6 -8 7 4 27 17 27
5 0 9 -5 9 -11z m306 -25 c-10 -14 -20 -23 -23 -21 -6 6 30 57 36 51 2 -2 -4
-15 -13 -30z m3767 29 c-7 -2 -19 -2 -25 0 -7 3 -2 5 12 5 14 0 19 -2 13 -5z
m-4273 -27 c0 -2 -10 -10 -23 -18 -16 -11 -29 -13 -47 -6 -15 6 -20 12 -13 16
12 8 83 14 83 8z m115 -6 c3 -5 1 -10 -4 -10 -6 0 -30 -17 -53 -37 -48 -42
-48 -41 2 16 38 42 45 47 55 31z m4045 0 c0 -5 -2 -10 -4 -10 -3 0 -8 5 -11
10 -3 6 -1 10 4 10 6 0 11 -4 11 -10z m-150 -15 c0 -8 -4 -15 -10 -15 -5 0 -7
7 -4 15 4 8 8 15 10 15 2 0 4 -7 4 -15z m210 5 c0 -5 -5 -10 -11 -10 -5 0 -7
5 -4 10 3 6 8 10 11 10 2 0 4 -4 4 -10z m-4000 -12 c0 -4 11 -8 24 -8 12 0 35
-11 50 -25 32 -30 65 -39 111 -32 33 5 34 5 23 -18 -6 -13 -18 -23 -27 -23 -9
1 -26 -2 -39 -6 -19 -6 -24 -4 -29 12 -6 26 -87 60 -98 42 -11 -17 -55 -12
-55 6 0 13 -3 14 -13 5 -17 -14 -50 19 -42 41 6 16 95 22 95 6z m220 -8 c0 -5
-2 -10 -4 -10 -3 0 -8 5 -11 10 -3 6 -1 10 4 10 6 0 11 -4 11 -10z m3744 2 c3
-5 -1 -9 -9 -9 -8 0 -12 4 -9 9 3 4 7 8 9 8 2 0 6 -4 9 -8z m-5073 -17 c-42
-19 -50 -19 -25 0 10 8 28 14 39 14 14 0 10 -4 -14 -14z m4799 -5 c0 -11 -2
-20 -4 -20 -2 0 -6 9 -9 20 -3 11 -1 20 4 20 5 0 9 -9 9 -20z m-5012 -72 c8
-10 1 -14 -31 -16 -41 -2 -41 -2 -17 12 32 18 36 18 48 4z m5165 5 c-7 -2 -21
-2 -30 0 -10 3 -4 5 12 5 17 0 24 -2 18 -5z m74 -19 c-3 -3 -12 -4 -19 -1 -8
3 -5 6 6 6 11 1 17 -2 13 -5z m136 -29 c-3 -9 -8 -14 -10 -11 -3 3 -2 9 2 15
9 16 15 13 8 -4z m-5813 -15 c0 -5 -2 -10 -4 -10 -3 0 -8 5 -11 10 -3 6 -1 10
4 10 6 0 11 -4 11 -10z m5535 0 c-12 -5 -14 -9 -6 -9 8 -1 12 -4 8 -7 -9 -9
-28 6 -22 17 4 5 14 9 23 8 14 0 13 -2 -3 -9z m-5298 -6 c-3 -3 -12 -4 -19 -1
-8 3 -5 6 6 6 11 1 17 -2 13 -5z m138 -4 c-3 -5 -12 -10 -18 -10 -7 0 -6 4 3
10 19 12 23 12 15 0z m5205 6 c0 -2 -7 -7 -16 -10 -8 -3 -12 -2 -9 4 6 10 25
14 25 6z m-5155 -16 c-3 -5 -11 -10 -16 -10 -6 0 -7 5 -4 10 3 6 11 10 16 10
6 0 7 -4 4 -10z m4145 1 c0 -6 -4 -13 -10 -16 -5 -3 -10 1 -10 9 0 9 5 16 10
16 6 0 10 -4 10 -9z m-4260 -23 c0 -6 -6 -5 -15 2 -8 7 -15 14 -15 16 0 2 7 1
15 -2 8 -4 15 -11 15 -16z m4177 7 c8 -23 0 -25 -21 -4 -18 17 -18 19 -2 19 9
0 19 -7 23 -15z m-1672 -5 c3 -6 -1 -7 -9 -4 -18 7 -21 14 -7 14 6 0 13 -4 16
-10z m2915 -9 c0 -6 -4 -13 -10 -16 -5 -3 -10 1 -10 9 0 9 5 16 10 16 6 0 10
-4 10 -9z m-1265 -23 c-3 -8 -12 -15 -19 -15 -8 0 -12 6 -9 14 3 7 9 10 14 7
5 -3 9 0 9 7 0 7 2 10 5 7 3 -3 3 -12 0 -20z m-4425 4 c0 -4 -9 -8 -20 -9 -11
-1 -46 -13 -78 -27 -31 -14 -49 -20 -40 -12 10 7 14 17 10 21 -4 5 -2 6 3 2 6
-3 29 3 50 13 43 20 75 25 75 12z m295 -12 c3 -6 -1 -7 -9 -4 -18 7 -21 14 -7
14 6 0 13 -4 16 -10z m4310 -19 c-6 -5 -25 10 -25 20 0 5 6 4 14 -3 8 -7 12
-15 11 -17z m-3832 2 c-18 -9 -36 -13 -40 -9 -10 10 11 21 44 23 l28 2 -32
-16z m938 -26 c-6 -8 -7 -18 -3 -22 4 -5 1 -5 -6 -1 -10 6 -10 11 -1 22 6 8
14 14 16 14 3 0 0 -6 -6 -13z m-1066 -7 c-11 -5 -29 -8 -40 -8 -16 0 -15 2 5
8 34 11 60 11 35 0z m975 0 c0 -5 -9 -10 -21 -10 -11 0 -17 5 -14 10 3 6 13
10 21 10 8 0 14 -4 14 -10z m55 0 c3 -6 -1 -7 -9 -4 -18 7 -21 14 -7 14 6 0
13 -4 16 -10z m2715 -24 c-13 -13 -13 -56 -1 -56 5 0 11 10 14 23 3 19 5 18
12 -10 7 -31 25 -46 25 -21 0 6 2 9 5 6 4 -3 3 -17 0 -31 -7 -27 -35 -27 -35
-1 0 8 -4 14 -10 14 -15 0 -12 -57 3 -63 8 -4 7 -6 -3 -6 -9 -1 -17 -12 -18
-27 -1 -18 2 -23 11 -18 9 6 9 5 0 -7 -18 -22 -5 -69 19 -69 17 0 18 3 9 14
-8 9 -8 16 -2 20 11 7 25 -29 17 -43 -3 -5 -16 -7 -28 -3 -15 4 -19 2 -13 -8
4 -7 2 -16 -6 -21 -9 -5 -10 -11 -4 -16 6 -5 9 -6 8 -4 -2 2 2 10 8 17 13 16
29 9 29 -12 0 -18 -25 -46 -34 -37 -3 4 -6 -4 -6 -16 0 -14 4 -20 12 -15 7 5
8 3 3 -6 -4 -6 -10 -28 -12 -48 -4 -28 -2 -34 10 -29 9 3 18 -1 21 -9 10 -26
7 -36 -9 -30 -11 4 -15 -2 -14 -27 0 -26 2 -28 8 -12 7 17 8 17 15 -8 7 -30
-2 -57 -13 -38 -4 5 -7 -20 -6 -57 l0 -67 35 -3 c30 -2 49 7 127 65 50 37 90
69 89 71 -11 11 -52 9 -70 -3 -13 -9 -15 -15 -7 -15 8 0 12 -3 9 -6 -4 -3 -16
0 -28 6 -33 18 -11 32 52 35 29 2 61 3 71 4 10 1 16 5 13 10 -4 5 4 7 16 3 16
-4 19 -2 13 8 -5 8 -4 11 2 7 6 -4 30 7 54 25 33 23 39 25 24 8 -11 -12 -51
-44 -90 -71 -38 -27 -111 -78 -162 -113 -77 -55 -97 -65 -132 -64 -41 0 -48 6
-33 24 4 5 4 46 -1 91 -8 70 -12 83 -30 89 -14 4 -25 1 -34 -12 -7 -9 -16 -14
-20 -11 -12 13 31 37 56 31 l24 -5 -7 168 c-14 319 -9 441 15 402 5 -8 4 -18
-1 -23z m-3952 -19 c6 -7 7 -18 3 -25 -5 -9 -11 -5 -19 13 -12 26 -2 34 16 12z
m-225 -24 c-7 -2 -19 -2 -25 0 -7 3 -2 5 12 5 14 0 19 -2 13 -5z m167 -8 c-10
-12 -9 -15 6 -16 16 0 16 -2 -3 -9 -12 -5 -25 -21 -29 -35 -3 -14 -8 -24 -11
-21 -8 8 17 84 30 89 20 8 20 8 7 -8z m700 11 c0 -3 -4 -8 -10 -11 -5 -3 -10
-1 -10 4 0 6 5 11 10 11 6 0 10 -2 10 -4z m-972 -13 c-32 -4 -38 -8 -38 -28 0
-38 -17 -38 -22 0 l-4 35 51 -2 c43 -1 45 -2 13 -5z m1630 -2 c10 -6 9 -10 -7
-14 -12 -3 -19 -1 -16 3 3 5 -1 11 -7 13 -9 4 -8 6 2 6 8 0 21 -3 28 -8z
m2992 -1 c0 -5 -2 -10 -4 -10 -3 0 -8 5 -11 10 -3 6 -1 10 4 10 6 0 11 -4 11
-10z m-2035 -20 c3 -5 2 -10 -4 -10 -5 0 -13 5 -16 10 -3 6 -2 10 4 10 5 0 13
-4 16 -10z m2962 -16 c-3 -3 -12 -4 -19 -1 -8 3 -5 6 6 6 11 1 17 -2 13 -5z
m-2956 -14 c10 -6 19 -16 19 -23 0 -7 -4 -6 -10 3 -7 11 -10 11 -10 2 0 -8 -5
-10 -12 -6 -8 5 -9 2 -4 -12 4 -10 4 -15 0 -11 -4 4 -14 1 -22 -6 -13 -9 -14
-9 -8 1 4 6 3 12 -2 12 -5 0 -9 7 -9 15 0 9 10 15 26 15 21 0 23 2 11 10 -20
13 -4 13 21 0z m-2614 -32 c-3 -8 -6 -5 -6 6 -1 11 2 17 5 13 3 -3 4 -12 1
-19z m306 15 c-7 -2 -19 -2 -25 0 -7 3 -2 5 12 5 14 0 19 -2 13 -5z m2357 -18
c0 -8 5 -15 11 -15 5 0 8 -4 5 -9 -5 -8 -14 -8 -45 -2 -2 1 2 7 8 14 6 8 8 17
4 20 -3 4 -1 7 5 7 7 0 12 -7 12 -15z m-110 -30 c0 -5 -5 -3 -10 5 -5 8 -10
20 -10 25 0 6 5 3 10 -5 5 -8 10 -19 10 -25z m-2127 18 c-7 -2 -19 -2 -25 0
-7 3 -2 5 12 5 14 0 19 -2 13 -5z m200 -66 c-3 -4 -6 -7 -7 -5 -1 2 -8 12 -16
22 -14 18 -14 18 7 6 12 -8 19 -18 16 -23z m727 23 c-12 -8 -12 -10 -1 -10 8
0 12 -3 8 -6 -9 -9 -28 6 -22 17 4 5 12 9 18 9 7 0 6 -4 -3 -10z m1330 -34 c0
-5 -3 -7 -6 -3 -3 3 -16 2 -29 -3 -34 -13 -39 1 -7 20 26 16 41 11 42 -14z
m-2406 -2 c3 -8 2 -12 -4 -9 -6 3 -10 10 -10 16 0 14 7 11 14 -7z m4373 -6
c-3 -8 -6 -5 -6 6 -1 11 2 17 5 13 3 -3 4 -12 1 -19z m-2032 -28 c-3 -5 -10
-10 -16 -10 -5 0 -9 5 -9 10 0 6 7 10 16 10 8 0 12 -4 9 -10z m-1078 -26 c-3
-3 -12 -4 -19 -1 -8 3 -5 6 6 6 11 1 17 -2 13 -5z m1050 0 c-3 -3 -12 -4 -19
-1 -8 3 -5 6 6 6 11 1 17 -2 13 -5z m-1364 -39 c-3 -9 -8 -14 -10 -11 -3 3 -2
9 2 15 9 16 15 13 8 -4z m1367 5 c-20 -13 -33 -13 -25 0 3 6 14 10 23 10 15 0
15 -2 2 -10z m2150 2 c0 -7 -26 -27 -38 -29 -6 -2 -12 2 -12 8 0 6 -7 9 -15 5
-8 -3 -15 -3 -15 0 0 7 38 20 60 20 11 0 20 -2 20 -4z m794 -7 c-5 -11 -2 -14
12 -9 15 6 17 4 7 -6 -10 -11 -15 -11 -27 0 -16 12 -13 30 4 30 5 0 7 -7 4
-15z m-4358 -10 c-21 -16 -32 -13 -21 4 3 6 14 11 23 11 15 -1 15 -2 -2 -15z
m1304 -6 c0 -5 -4 -9 -8 -9 -5 0 -9 7 -9 15 0 8 4 12 9 9 4 -3 8 -9 8 -15z
m67 -15 c-3 -3 -12 -4 -19 -1 -8 3 -5 6 6 6 11 1 17 -2 13 -5z m-969 -24 c8 0
13 -3 9 -6 -10 -10 -48 7 -40 19 5 8 8 8 11 -1 2 -7 11 -12 20 -12z m-48 6 c0
-3 -4 -8 -10 -11 -5 -3 -10 -1 -10 4 0 6 5 11 10 11 6 0 10 -2 10 -4z m3985
-11 l-30 -14 30 5 c28 4 29 4 6 -6 -26 -11 -34 -8 -37 15 -2 11 7 15 29 15
l32 -1 -30 -14z m-704 -18 c-10 -9 -11 -8 -5 6 3 10 9 15 12 12 3 -3 0 -11 -7
-18z m-2141 3 c0 -5 5 -10 11 -10 5 0 7 5 3 11 -5 8 -1 8 14 0 11 -6 29 -8 39
-5 15 5 15 4 3 -5 -8 -6 -10 -11 -4 -11 7 0 14 -9 17 -20 3 -11 1 -20 -5 -20
-5 0 -6 -5 -3 -10 11 -17 -3 -40 -20 -34 -8 3 -13 10 -10 14 3 5 1 11 -4 15
-5 3 -14 -3 -20 -12 -6 -10 -11 -12 -11 -5 0 6 -7 12 -16 12 -11 0 -15 -6 -11
-19 3 -14 1 -18 -9 -14 -8 3 -11 9 -8 14 5 8 -18 14 -40 10 -5 -1 -4 4 2 12 7
8 9 17 5 21 -4 4 5 3 20 -3 21 -8 27 -8 27 3 0 8 6 17 13 19 7 3 6 6 -5 6 -9
1 -20 6 -24 13 -5 8 -2 9 9 5 10 -3 17 -2 17 3 0 5 -8 11 -17 13 -14 4 -12 5
5 6 12 0 22 -3 22 -9z m2030 0 c8 -5 12 -10 8 -10 -5 0 -10 1 -11 3 -2 1 -10
-3 -18 -9 -11 -9 -17 -9 -26 1 -10 11 -10 15 0 18 19 8 31 7 47 -3z m-2160
-20 c0 -5 -7 -10 -15 -10 -8 0 -15 5 -15 10 0 6 7 10 15 10 8 0 15 -4 15 -10z
m1987 4 c-3 -3 -12 -4 -19 -1 -8 3 -5 6 6 6 11 1 17 -2 13 -5z m-2107 -14 c0
-5 -4 -10 -9 -10 -6 0 -13 5 -16 10 -3 6 1 10 9 10 9 0 16 -4 16 -10z m2370 7
c0 -2 -10 -12 -22 -23 l-23 -19 19 23 c18 21 26 27 26 19z m-3958 -26 l20 -20
-20 6 c-11 3 -23 11 -26 19 -7 19 1 18 26 -5z m478 -11 c0 -5 -5 -10 -11 -10
-5 0 -7 5 -4 10 3 6 8 10 11 10 2 0 4 -4 4 -10z m910 1 c0 -6 -4 -12 -8 -15
-5 -3 -9 1 -9 9 0 8 4 15 9 15 4 0 8 -4 8 -9z m-1333 -23 c-3 -8 -6 -5 -6 6
-1 11 2 17 5 13 3 -3 4 -12 1 -19z m93 -8 c0 -13 -11 -13 -30 0 -12 8 -11 10
8 10 12 0 22 -4 22 -10z m653 3 c-7 -2 -19 -2 -25 0 -7 3 -2 5 12 5 14 0 19
-2 13 -5z m2947 -7 c-7 -7 -13 -7 -20 0 -6 6 -3 10 10 10 13 0 16 -4 10 -10z
m-3787 -21 c-3 -9 -8 -14 -10 -11 -3 3 -2 9 2 15 9 16 15 13 8 -4z m3827 -6
c0 -5 -6 -9 -13 -9 -8 0 -14 6 -14 14 0 8 6 12 14 9 7 -3 13 -9 13 -14z
m-1920 -4 c-7 -9 -15 -13 -17 -11 -7 7 7 26 19 26 6 0 6 -6 -2 -15z m1865 5
c-28 -12 -37 -12 -30 0 3 6 16 10 28 9 21 0 21 -1 2 -9z m-4301 -9 c4 -5 -3
-7 -14 -4 -23 6 -26 13 -6 13 8 0 17 -4 20 -9z m576 -1 c0 -5 -8 -10 -17 -10
-15 0 -16 2 -3 10 19 12 20 12 20 0z m3652 -8 c4 -4 -8 -8 -26 -9 -24 -2 -36
2 -40 13 -5 14 -1 16 26 10 18 -3 36 -10 40 -14z m-4362 -2 c-8 -5 -19 -10
-25 -10 -5 0 -3 5 5 10 8 5 20 10 25 10 6 0 3 -5 -5 -10z m2535 -10 c3 -5 1
-10 -4 -10 -6 0 -11 5 -11 10 0 6 2 10 4 10 3 0 8 -4 11 -10z m-1729 -13 c8 3
14 0 14 -7 0 -15 -33 -9 -36 8 -1 7 0 8 2 3 3 -6 12 -7 20 -4z m3249 3 c3 -5
2 -10 -4 -10 -5 0 -13 5 -16 10 -3 6 -2 10 4 10 5 0 13 -4 16 -10z m-1545 -12
c0 -4 -7 -8 -15 -8 -8 0 -15 4 -15 8 0 5 7 9 15 9 8 0 15 -4 15 -9z m136 -25
c1 -24 -2 -30 -14 -25 -13 4 -13 7 -2 10 8 3 2 10 -16 19 -16 7 -21 11 -11 8
11 -3 17 1 17 11 0 30 25 7 26 -23z m-2595 18 c-11 -7 -10 -10 5 -14 17 -4 17
-5 -2 -6 -12 0 -24 6 -28 14 -4 11 1 15 17 15 17 0 19 -2 8 -9z m979 -6 c0
-12 -19 -12 -23 0 -4 9 -1 12 9 8 7 -3 14 -7 14 -8z m543 -25 c-3 -12 -8 -19
-11 -16 -5 6 5 36 12 36 2 0 2 -9 -1 -20z m2514 -35 c4 0 7 -3 6 -7 -2 -5 0
-7 5 -5 16 5 63 -49 56 -66 -8 -23 -19 -21 -45 6 -33 34 -46 59 -52 97 l-6 35
14 -30 c7 -16 17 -30 22 -30z m-3397 31 c0 -3 -4 -8 -10 -11 -5 -3 -10 -1 -10
4 0 6 5 11 10 11 6 0 10 -2 10 -4z m625 -6 c-3 -5 -10 -10 -16 -10 -5 0 -9 5
-9 10 0 6 7 10 16 10 8 0 12 -4 9 -10z m929 -5 c-4 -8 -14 -15 -23 -15 -14 1
-13 3 3 15 25 19 27 19 20 0z m-2087 -11 c-3 -3 -12 -4 -19 -1 -8 3 -5 6 6 6
11 1 17 -2 13 -5z m723 2 c0 -9 -30 -14 -35 -6 -4 6 3 10 14 10 12 0 21 -2 21
-4z m400 0 c0 -11 -19 -15 -25 -6 -3 5 1 10 9 10 9 0 16 -2 16 -4z m60 -6 c0
-5 -5 -10 -11 -10 -5 0 -7 5 -4 10 3 6 8 10 11 10 2 0 4 -4 4 -10z m1037 -37
c-3 -10 -5 -2 -5 17 0 19 2 27 5 18 2 -10 2 -26 0 -35z m283 20 c0 -5 -4 -14
-9 -21 -7 -11 -9 -11 -14 1 -3 8 -3 18 0 21 9 8 23 7 23 -1z m2326 -7 c3 -8
12 -12 20 -9 10 3 12 0 8 -10 -5 -15 -20 -16 -59 -2 l-20 8 20 -16 c20 -16 20
-16 -2 -17 -12 0 -25 -4 -28 -10 -3 -5 -1 -10 5 -10 6 0 8 -5 4 -11 -3 -6 -15
-8 -26 -6 -11 3 -26 3 -34 0 -12 -4 -12 -8 -2 -21 12 -13 11 -14 -9 -2 -12 8
-20 18 -17 22 3 4 -2 5 -10 2 -9 -3 -16 -10 -16 -16 0 -5 4 -7 9 -4 5 3 14 -1
21 -9 11 -13 10 -14 -6 -9 -10 4 -24 13 -31 21 -6 8 -14 14 -17 14 -3 -1 -5 2
-3 7 1 4 10 7 19 6 9 0 16 4 15 10 -1 6 9 10 23 8 18 -2 21 0 11 6 -10 8 -5
14 23 27 20 10 39 21 42 26 9 14 54 10 60 -5z m217 7 c-7 -2 -19 -2 -25 0 -7
3 -2 5 12 5 14 0 19 -2 13 -5z m-4518 -13 c-7 -12 -32 -13 -39 -2 -2 4 7 9 20
10 15 1 22 -2 19 -8z m4358 -5 c-3 -9 -8 -14 -10 -11 -3 3 -2 9 2 15 9 16 15
13 8 -4z m-2734 1 c-2 -2 -15 -9 -29 -15 -24 -11 -24 -11 -6 3 16 13 49 24 35
12z m321 -16 c0 -11 -5 -20 -12 -20 -6 0 -8 3 -5 7 4 3 2 12 -4 20 -9 10 -8
13 5 13 9 0 16 -8 16 -20z m-1714 -8 c1 -7 0 -8 -3 -2 -2 5 -9 8 -14 4 -5 -3
-9 0 -9 6 0 15 23 7 26 -8z m3111 -18 c0 -9 -5 -10 -19 -3 -10 5 -18 16 -18
24 0 12 4 13 18 4 10 -7 19 -18 19 -25z m1204 18 c-7 -2 -18 1 -23 6 -8 8 -4
9 13 5 13 -4 18 -8 10 -11z m-4274 2 c-3 -3 -12 -4 -19 -1 -8 3 -5 6 6 6 11 1
17 -2 13 -5z m740 -42 c-14 -18 -19 -9 -11 24 6 25 8 26 14 9 4 -11 3 -26 -3
-33z m-1482 28 c3 -5 2 -10 -4 -10 -5 0 -13 5 -16 10 -3 6 -2 10 4 10 5 0 13
-4 16 -10z m1453 -15 c1 -14 -3 -25 -8 -25 -6 0 -10 11 -10 25 0 14 4 25 8 25
4 0 9 -11 10 -25z m720 -8 c-28 -10 -36 0 -12 17 14 11 21 11 26 3 4 -7 -1
-15 -14 -20z m2667 23 c-4 -6 6 -10 23 -10 18 0 32 -6 36 -16 5 -13 3 -14 -6
-7 -7 6 -26 11 -41 11 -15 0 -30 2 -33 5 -8 8 5 27 17 27 6 0 7 -4 4 -10z
m-4750 -59 c-3 -2 -5 1 -5 8 0 7 -4 10 -9 7 -5 -3 -11 3 -14 14 -7 29 17 31
25 1 4 -14 5 -27 3 -30z m745 55 c0 -2 -7 -7 -16 -10 -8 -3 -12 -2 -9 4 6 10
25 14 25 6z m1618 -36 c-2 -22 0 -41 5 -43 5 -1 11 -34 14 -72 8 -95 14 -105
60 -98 56 9 33 -12 -35 -32 -49 -15 -80 -26 -115 -43 -4 -2 -6 2 -5 10 3 13
-11 14 -49 3 -18 -6 -25 -2 -33 19 -5 14 -15 26 -22 26 -9 0 -9 -3 0 -12 7 -7
12 -16 12 -21 0 -11 -50 0 -68 16 -11 8 -9 13 10 23 13 7 23 18 23 25 0 7 18
22 39 34 l39 20 -29 6 c-28 5 -28 5 -7 13 13 4 28 4 35 0 8 -5 7 0 -2 11 -14
17 -13 18 4 12 24 -10 104 71 113 114 8 42 16 36 11 -11z m-165 15 c-3 -9 -8
-14 -10 -11 -3 3 -2 9 2 15 9 16 15 13 8 -4z m103 3 c4 -7 4 -10 -1 -6 -4 4
-15 2 -24 -5 -14 -11 -14 -10 -2 6 16 20 18 21 27 5z m2379 2 c-3 -5 -11 -10
-16 -10 -6 0 -7 5 -4 10 3 6 11 10 16 10 6 0 7 -4 4 -10z m35 6 c0 -3 -4 -8
-10 -11 -5 -3 -10 -1 -10 4 0 6 5 11 10 11 6 0 10 -2 10 -4z m124 -12 c3 -8 2
-12 -4 -9 -6 3 -10 10 -10 16 0 14 7 11 14 -7z m-2594 -1 c-8 -3 -19 -12 -23
-19 -4 -8 -12 -14 -18 -14 -5 0 -4 9 3 20 7 11 22 20 33 19 14 0 16 -2 5 -6z
m-960 -13 c0 -5 -2 -10 -4 -10 -3 0 -8 5 -11 10 -3 6 -1 10 4 10 6 0 11 -4 11
-10z m770 -5 c19 -22 8 -25 -12 -3 -10 10 -14 18 -9 18 5 0 14 -7 21 -15z
m-1313 -1 c-3 -3 -12 -4 -19 -1 -8 3 -5 6 6 6 11 1 17 -2 13 -5z m604 -10 c10
-9 15 -22 12 -31 -4 -11 -8 -9 -17 9 -7 13 -20 22 -29 22 -9 -1 -17 2 -17 7 0
15 32 10 51 -7z m-901 -10 c0 -8 -4 -12 -10 -9 -5 3 -10 10 -10 16 0 5 5 9 10
9 6 0 10 -7 10 -16z m1740 6 c0 -5 -4 -10 -9 -10 -6 0 -13 5 -16 10 -3 6 1 10
9 10 9 0 16 -4 16 -10z m2450 -5 c0 -8 -7 -15 -16 -15 -8 0 -13 4 -10 9 4 5 0
12 -6 14 -7 3 -3 6 10 6 13 1 22 -5 22 -14z m-4453 -6 c-14 -8 -22 -8 -30 0
-8 8 -3 11 19 11 25 -1 27 -2 11 -11z m1243 1 c0 -5 -5 -10 -11 -10 -5 0 -7 5
-4 10 3 6 8 10 11 10 2 0 4 -4 4 -10z m855 0 c3 -6 -1 -7 -9 -4 -18 7 -21 14
-7 14 6 0 13 -4 16 -10z m2505 -2 c0 -4 -5 -8 -11 -8 -5 0 -8 -4 -5 -8 2 -4 0
-14 -5 -22 -9 -13 -10 -13 -6 0 4 17 -21 46 -31 35 -4 -4 -1 -10 6 -12 17 -6
15 -20 -3 -20 -15 0 -28 24 -20 37 6 10 75 9 75 -2z m-4500 -18 c0 -5 -9 -10
-20 -10 -11 0 -20 5 -20 10 0 6 9 10 20 10 11 0 20 -4 20 -10z m-404 -15 c14
-13 14 -15 0 -15 -8 0 -18 5 -21 10 -4 6 -11 8 -16 5 -5 -4 -9 -1 -9 4 0 16
29 13 46 -4z m2274 3 c0 -11 -12 -10 -30 2 -12 7 -10 9 8 7 12 0 22 -5 22 -9z
m2425 -13 c-3 -30 -16 -45 -22 -27 -4 10 -9 10 -23 -3 -16 -15 -18 -15 -16 -1
3 19 14 31 29 31 7 1 11 6 10 13 -2 7 3 12 11 12 9 0 13 -9 11 -25z m95 10
c-7 -9 -15 -13 -19 -10 -3 3 1 10 9 15 21 14 24 12 10 -5z m-4850 -5 c0 -5 -4
-10 -10 -10 -5 0 -10 5 -10 10 0 6 5 10 10 10 6 0 10 -4 10 -10z m410 6 c0 -3
-4 -8 -10 -11 -5 -3 -10 -1 -10 4 0 6 5 11 10 11 6 0 10 -2 10 -4z m4250 -11
c0 -8 -8 -15 -17 -14 -11 0 -13 3 -5 6 6 2 10 9 6 14 -3 5 0 9 5 9 6 0 11 -7
11 -15z m-4112 -20 c3 -3 -4 -4 -16 -2 -12 2 -24 6 -28 10 -4 3 4 4 16 2 12
-2 25 -7 28 -10z m1728 0 c-8 -8 -20 -15 -27 -15 -7 0 -4 6 7 15 25 19 40 19
20 0z m161 9 c-3 -3 -12 -4 -19 -1 -8 3 -5 6 6 6 11 1 17 -2 13 -5z m2383 -4
c0 -5 -2 -10 -4 -10 -3 0 -8 5 -11 10 -3 6 -1 10 4 10 6 0 11 -4 11 -10z
m-4640 -4 c0 -2 -7 -7 -16 -10 -8 -3 -12 -2 -9 4 6 10 25 14 25 6z m730 0 c0
-2 -7 -6 -15 -10 -8 -3 -15 -1 -15 4 0 6 7 10 15 10 8 0 15 -2 15 -4z m-774
-15 c-4 -5 0 -12 6 -14 8 -3 6 -6 -4 -6 -10 -1 -18 6 -18 14 0 8 5 15 11 15 5
0 8 -4 5 -9z m144 -6 c0 -6 -7 -12 -15 -12 -8 0 -15 6 -15 12 0 6 7 12 15 12
8 0 15 -6 15 -12z m1439 -8 c12 -15 12 -17 -3 -11 -9 3 -16 13 -16 22 0 8 1
13 3 11 1 -2 9 -12 16 -22z m3093 9 c7 4 8 2 4 -4 -4 -6 -13 -9 -21 -6 -8 4
-12 11 -8 17 5 8 8 7 11 -1 2 -7 9 -9 14 -6z m150 -20 c12 -18 -14 -20 -27 -3
-9 12 -14 14 -23 5 -8 -8 -12 -8 -12 -2 0 26 45 26 62 0z m-4651 -3 c13 -16
12 -17 -3 -4 -10 7 -18 15 -18 17 0 8 8 3 21 -13z m1983 7 c-7 -7 -19 -7 -35
-1 -23 9 -22 10 11 10 23 1 31 -2 24 -9z m-1534 -4 c0 -2 -7 -6 -15 -10 -8 -3
-15 -1 -15 4 0 6 7 10 15 10 8 0 15 -2 15 -4z m535 -6 c-3 -5 -12 -10 -18 -10
-7 0 -6 4 3 10 19 12 23 12 15 0z m3500 -10 c-2 -4 -16 -5 -30 -3 -13 3 -23 9
-20 13 2 4 16 5 30 3 13 -3 23 -9 20 -13z m-3158 4 c-3 -3 -12 -4 -19 -1 -8 3
-5 6 6 6 11 1 17 -2 13 -5z m70 0 c-3 -3 -12 -4 -19 -1 -8 3 -5 6 6 6 11 1 17
-2 13 -5z m2901 -6 c-2 -7 4 -12 12 -10 13 3 13 1 1 -10 -11 -10 -14 -10 -18
0 -6 16 -35 15 -59 -3 -22 -17 -38 -20 -29 -5 3 6 1 10 -4 10 -6 0 -11 -4 -11
-8 0 -4 -9 -8 -20 -9 -17 -2 -18 1 -10 17 8 15 15 17 33 11 15 -6 31 -4 47 5
31 17 61 18 58 2z m72 3 c0 -6 -9 -9 -20 -8 -11 1 -20 5 -20 9 0 4 9 8 20 8
11 0 20 -4 20 -9z m-4580 -11 c0 -5 -2 -10 -4 -10 -3 0 -8 5 -11 10 -3 6 -1
10 4 10 6 0 11 -4 11 -10z m1430 -14 c0 -3 -4 -8 -10 -11 -5 -3 -10 -1 -10 4
0 6 5 11 10 11 6 0 10 -2 10 -4z m3050 -6 c0 -5 -4 -10 -10 -10 -5 0 -10 5
-10 10 0 6 5 10 10 10 6 0 10 -4 10 -10z m96 -2 c4 -7 4 -10 -1 -6 -4 4 -14 3
-22 -3 -13 -11 -19 2 -6 14 10 11 21 8 29 -5z m156 1 c-4 -4 -18 -9 -32 -13
-14 -3 -19 -3 -11 0 11 5 11 8 0 15 -10 6 -3 8 18 7 18 -1 29 -5 25 -9z
m-3197 -9 c-3 -5 -12 -10 -18 -10 -7 0 -6 4 3 10 19 12 23 12 15 0z m630 0
c-3 -5 -1 -10 4 -10 6 0 11 -5 11 -11 0 -8 -5 -8 -15 1 -17 14 -20 30 -4 30 5
0 7 -4 4 -10z m-1622 -20 c-3 -12 -8 -19 -11 -16 -5 6 5 36 12 36 2 0 2 -9 -1
-20z m3630 1 c2 -10 -4 -29 -15 -42 l-19 -24 11 24 c7 12 10 32 7 42 -3 10 -2
19 3 19 4 0 10 -8 13 -19z m277 -1 c0 -5 -5 -10 -11 -10 -5 0 -7 5 -4 10 3 6
8 10 11 10 2 0 4 -4 4 -10z m-2940 -5 c0 -2 -10 -9 -22 -15 -22 -11 -22 -10
-4 4 21 17 26 19 26 11z m3204 -6 c-4 -7 0 -9 13 -5 11 4 31 2 44 -3 22 -9 22
-10 4 -10 -12 -1 -26 -6 -33 -13 -9 -9 -12 -9 -12 0 0 6 -6 9 -13 6 -7 -2 -13
4 -14 16 -1 11 3 20 8 20 6 0 7 -5 3 -11z m-4531 -13 c-2 -3 -3 -11 -3 -17 0
-5 -4 -7 -10 -4 -5 3 -10 1 -10 -5 0 -17 -17 -3 -23 19 -4 16 0 19 22 17 14
-2 25 -6 24 -10z m237 0 c0 -2 -11 -6 -25 -8 -14 -3 -25 -1 -25 3 0 5 11 9 25
9 14 0 25 -2 25 -4z m3999 -9 c12 -9 13 -9 7 1 -4 6 -2 12 3 12 16 0 13 -26
-4 -40 -8 -7 -15 -9 -15 -5 0 4 -7 2 -15 -5 -11 -9 -15 -10 -15 -1 0 8 -8 10
-20 6 -16 -5 -20 -2 -20 18 0 20 5 24 32 25 18 0 39 -5 47 -11z m67 -15 c-18
-16 -18 -16 -6 6 6 13 14 21 18 18 3 -4 -2 -14 -12 -24z m-526 4 c0 -8 -6 -16
-14 -19 -10 -4 -12 0 -9 14 6 22 23 26 23 5z m54 6 c3 -5 -1 -9 -9 -9 -8 0
-12 4 -9 9 3 4 7 8 9 8 2 0 6 -4 9 -8z m-3549 -28 c-22 -16 -40 -8 -25 11 6 8
19 11 27 8 14 -5 14 -8 -2 -19z m995 16 c0 -5 -2 -10 -4 -10 -3 0 -8 5 -11 10
-3 6 -1 10 4 10 6 0 11 -4 11 -10z m170 6 c0 -3 -4 -8 -10 -11 -5 -3 -10 -1
-10 4 0 6 5 11 10 11 6 0 10 -2 10 -4z m-124 -43 c-3 -3 -12 2 -20 10 -12 11
-13 16 -3 20 13 4 33 -21 23 -30z m2469 -63 c4 -36 7 -95 7 -132 1 -52 4 -65
14 -61 9 3 14 -2 14 -12 0 -9 -4 -13 -10 -10 -5 3 -10 3 -11 -2 -4 -43 -7 -54
-12 -60 -4 -3 -7 27 -8 68 0 41 -4 110 -7 154 -6 74 -5 131 3 123 2 -1 6 -32
10 -68z m285 60 c0 -5 -5 -10 -11 -10 -5 0 -7 5 -4 10 3 6 8 10 11 10 2 0 4
-4 4 -10z m-2513 -15 c0 -8 -4 -12 -9 -9 -4 3 -8 9 -8 15 0 5 4 9 8 9 5 0 9
-7 9 -15z m2178 -24 c-3 -19 1 -31 11 -35 19 -7 18 -22 -2 -30 -11 -4 -15 -2
-11 8 3 8 -1 20 -9 26 -17 15 -18 47 -1 53 6 3 13 6 14 6 1 1 0 -12 -2 -28z
m-3255 15 c0 -2 -9 -6 -20 -9 -11 -3 -18 -1 -14 4 5 9 34 13 34 5z m1198 -15
c10 -6 7 -10 -11 -13 -18 -4 -24 -1 -20 9 6 15 13 16 31 4z m2699 -13 c-3 -8
-6 -5 -6 6 -1 11 2 17 5 13 3 -3 4 -12 1 -19z m-3136 -11 c-10 -9 -11 -8 -5 6
3 10 9 15 12 12 3 -3 0 -11 -7 -18z m-22 6 c0 -5 -4 -17 -9 -28 -8 -18 -9 -17
-9 8 -1 15 4 27 9 27 6 0 10 -3 9 -7z m-1101 -25 c-7 -19 -38 -22 -38 -4 0 10
9 16 21 16 12 0 19 -5 17 -12z m4262 -20 c0 -6 -6 -5 -15 2 -8 7 -15 14 -15
16 0 2 7 1 15 -2 8 -4 15 -11 15 -16z m-4244 -7 c-3 -4 1 -17 9 -27 8 -10 14
-23 15 -29 0 -5 -4 -4 -9 4 -8 13 -12 13 -28 1 -10 -8 -15 -10 -11 -6 4 5 3
15 -3 23 -9 10 -8 13 4 13 10 0 14 6 11 15 -4 8 -1 15 6 15 6 0 9 -4 6 -9z
m647 -16 c-3 -9 -8 -14 -10 -11 -3 3 -2 9 2 15 9 16 15 13 8 -4z m979 -13 c-2
-14 2 -22 11 -22 10 0 13 7 10 21 -6 21 -5 21 21 4 29 -19 34 -35 10 -35 -9 0
-25 -11 -36 -25 -24 -30 -44 -32 -51 -5 -3 11 0 20 5 20 7 0 6 5 -1 13 -6 8
-8 17 -4 21 4 4 -1 4 -12 0 -20 -7 -20 -7 -1 15 25 27 52 24 48 -7z m-365 12
c-3 -3 -12 -4 -19 -1 -8 3 -5 6 6 6 11 1 17 -2 13 -5z m2862 -39 c-13 -19 -25
-30 -27 -25 -2 5 6 19 17 32 12 12 21 26 21 32 0 5 3 6 6 3 4 -4 -4 -22 -17
-42z m-2970 -11 c3 -16 1 -17 -13 -5 -19 16 -21 34 -3 29 6 -3 14 -13 16 -24z
m-869 6 c-8 -5 -19 -10 -25 -10 -5 0 -3 5 5 10 8 5 20 10 25 10 6 0 3 -5 -5
-10z m695 0 c-3 -5 -12 -10 -18 -10 -7 0 -6 4 3 10 19 12 23 12 15 0z m567
-12 c-15 -15 -97 -24 -88 -9 5 7 13 10 20 8 7 -3 23 1 36 8 26 14 48 9 32 -7z
m-638 -19 c-3 -5 -17 -9 -32 -9 -25 1 -26 2 -9 15 20 14 51 10 41 -6z m654 -9
c-7 -11 -22 -20 -33 -19 -19 0 -19 1 3 11 12 6 22 15 22 20 0 4 5 8 10 8 6 0
5 -8 -2 -20z m175 13 c-7 -2 -19 -2 -25 0 -7 3 -2 5 12 5 14 0 19 -2 13 -5z
m-1719 -18 c-6 -16 -24 -21 -24 -7 0 11 11 22 21 22 5 0 6 -7 3 -15z m3840 1
c-3 -9 -12 -12 -22 -9 -15 6 -9 11 25 22 1 1 0 -5 -3 -13z m-3477 -2 c-3 -3
-12 -4 -19 -1 -8 3 -5 6 6 6 11 1 17 -2 13 -5z m1414 -3 c-7 -5 -11 -13 -8
-17 3 -5 -1 -18 -9 -28 -12 -18 -13 -16 -12 17 1 30 5 37 22 37 16 0 18 -2 7
-9z m154 -1 c7 -12 -2 -12 -30 0 -19 8 -19 9 2 9 12 1 25 -3 28 -9z m-695 -10
c0 -5 -5 -10 -11 -10 -5 0 -7 5 -4 10 3 6 8 10 11 10 2 0 4 -4 4 -10z m-1170
-11 c0 -6 -6 -9 -14 -6 -7 3 -19 0 -25 -6 -7 -7 -11 -7 -11 -1 0 16 11 24 32
24 10 0 18 -5 18 -11z m895 1 c-3 -5 -16 -10 -28 -9 -21 0 -21 1 -2 9 28 12
37 12 30 0z m725 -9 c0 -5 -7 -12 -16 -15 -14 -5 -15 -4 -4 9 14 17 20 19 20
6z m260 -1 c0 -5 -9 -10 -21 -10 -11 0 -17 5 -14 10 3 6 13 10 21 10 8 0 14
-4 14 -10z m1880 -12 c0 -6 -6 -5 -15 2 -8 7 -15 14 -15 16 0 2 7 1 15 -2 8
-4 15 -11 15 -16z m-3770 -7 c0 -5 -7 -14 -15 -21 -12 -10 -15 -10 -15 2 0 8
3 18 7 21 9 10 23 9 23 -2z m1730 -10 c0 -6 -4 -13 -10 -16 -5 -3 -10 1 -10 9
0 9 5 16 10 16 6 0 10 -4 10 -9z m126 -26 c-7 -27 -26 -35 -26 -9 0 8 5 12 10
9 6 -3 10 4 10 16 0 12 3 20 6 16 4 -3 4 -18 0 -32z m-909 19 c-3 -3 -12 -4
-19 -1 -8 3 -5 6 6 6 11 1 17 -2 13 -5z m53 -20 c0 -14 -4 -23 -9 -20 -5 3 -7
15 -4 26 7 28 13 25 13 -6z m2752 4 c-7 -7 -12 -8 -12 -2 0 14 12 26 19 19 2
-3 -1 -11 -7 -17z m-2297 2 c-3 -5 -12 -10 -18 -10 -7 0 -6 4 3 10 19 12 23
12 15 0z m332 -5 c0 -8 -9 -22 -19 -32 -24 -21 -25 3 -1 29 20 22 20 22 20 3z
m-287 -16 c0 -5 7 -9 16 -9 8 0 13 -4 10 -9 -3 -5 -15 -7 -26 -4 -11 3 -28 -1
-37 -8 -15 -12 -16 -12 -10 4 4 10 7 22 7 26 0 4 9 7 20 8 11 1 20 -2 20 -8z
m-548 -31 c-9 -9 -12 -7 -12 12 0 19 3 21 12 12 9 -9 9 -15 0 -24z m2921 25
c-7 -2 -21 -2 -30 0 -10 3 -4 5 12 5 17 0 24 -2 18 -5z m-2823 -24 c0 -18 -2
-19 -15 -9 -15 12 -12 30 6 30 5 0 9 -10 9 -21z m2690 -3 c0 -2 -7 -6 -15 -10
-8 -3 -15 -1 -15 4 0 6 7 10 15 10 8 0 15 -2 15 -4z m-2245 -15 c-3 -5 3 -12
12 -14 11 -3 6 -5 -11 -6 -24 -1 -27 1 -16 14 14 16 25 21 15 6z m95 -27 c0
-2 -7 -4 -15 -4 -8 0 -15 4 -15 10 0 5 7 7 15 4 8 -4 15 -8 15 -10z m2000 -22
c0 -15 -2 -15 -10 -2 -13 20 -13 33 0 25 6 -3 10 -14 10 -23z m150 18 c0 -5
-2 -10 -4 -10 -3 0 -8 5 -11 10 -3 6 -1 10 4 10 6 0 11 -4 11 -10z m-2780 -20
c0 -5 -5 -10 -11 -10 -5 0 -7 5 -4 10 3 6 8 10 11 10 2 0 4 -4 4 -10z m-287
-25 c4 -8 2 -17 -3 -20 -6 -4 -10 3 -10 14 0 25 6 27 13 6z m464 -17 c-3 -8
-6 -5 -6 6 -1 11 2 17 5 13 3 -3 4 -12 1 -19z m214 -5 c-12 -20 -14 -14 -5 12
4 9 9 14 11 11 3 -2 0 -13 -6 -23z m183 18 c7 -10 -17 -21 -42 -21 -15 1 -14
3 2 15 23 17 33 19 40 6z m2053 -28 c-3 -10 -5 -4 -5 12 0 17 2 24 5 18 2 -7
2 -21 0 -30z m-3047 7 c0 -5 -4 -10 -10 -10 -5 0 -10 5 -10 10 0 6 5 10 10 10
6 0 10 -4 10 -10z m105 -10 c-3 -5 -12 -10 -18 -10 -7 0 -6 4 3 10 19 12 23
12 15 0z m1137 -38 c-8 -2 -3 -19 14 -48 14 -24 23 -47 20 -52 -3 -5 1 -18 9
-28 19 -25 18 -61 -3 -108 -16 -35 -19 -37 -31 -22 -12 14 -12 16 5 10 18 -5
18 -5 2 9 -24 19 -23 31 2 24 11 -3 18 -1 14 4 -3 5 0 9 5 9 6 0 11 9 11 20 0
26 -22 26 -39 -1 -7 -12 -16 -18 -20 -12 -3 5 -20 15 -38 20 -24 9 -35 8 -52
-3 -16 -12 -9 8 29 82 57 111 72 133 79 113 2 -7 -1 -15 -7 -17z m-1227 -22
c-1 -8 2 -21 8 -27 7 -9 5 -13 -7 -13 -10 0 -14 -4 -11 -10 3 -5 1 -10 -4 -10
-6 0 -11 5 -11 11 0 5 -4 8 -9 4 -14 -8 -25 35 -12 48 8 8 11 8 11 -1 0 -7 4
-12 9 -12 5 0 8 12 5 26 -4 21 -2 23 9 12 8 -7 13 -20 12 -28z m95 30 c0 -5
-5 -10 -11 -10 -5 0 -7 5 -4 10 3 6 8 10 11 10 2 0 4 -4 4 -10z m174 -5 c3 -8
1 -15 -4 -15 -6 0 -10 4 -10 9 0 5 -8 12 -17 14 -14 4 -13 5 3 6 12 0 24 -6
28 -14z m661 -5 c-28 -31 -85 -62 -85 -46 0 17 40 53 65 59 36 9 38 7 20 -13z
m57 8 c-9 -9 -15 -9 -24 0 -9 9 -7 12 12 12 19 0 21 -3 12 -12z m-449 -25 c-7
-2 -19 -2 -25 0 -7 3 -2 5 12 5 14 0 19 -2 13 -5z m377 -34 c-25 -23 -56 -49
-70 -58 l-24 -16 17 25 c20 29 95 90 111 90 6 0 -9 -19 -34 -41z m-335 -109
c-3 -5 -10 -10 -16 -10 -5 0 -9 5 -9 10 0 6 7 10 16 10 8 0 12 -4 9 -10z m585
-96 c16 -19 36 -34 44 -34 8 0 18 -5 21 -11 10 -15 -15 -99 -30 -99 -15 0 -49
37 -69 77 -8 17 -22 37 -30 45 -8 8 -12 25 -9 40 6 34 33 27 73 -18z m-794
-23 c-3 -5 -16 -11 -28 -14 -22 -6 -22 -5 -4 8 22 17 40 20 32 6z m383 -71
c-7 -5 -19 -6 -26 -3 -11 5 -12 8 -2 13 7 5 19 6 26 3 11 -5 12 -8 2 -13z
m211 -17 c0 -8 -5 -13 -12 -11 -18 6 -21 25 -3 25 8 0 15 -7 15 -14z m-265 -3
c-3 -5 -11 -10 -16 -10 -6 0 -7 5 -4 10 3 6 11 10 16 10 6 0 7 -4 4 -10z m202
4 c-3 -3 -12 -4 -19 -1 -8 3 -5 6 6 6 11 1 17 -2 13 -5z m-147 -39 c-14 -17
-40 -20 -40 -6 0 5 10 12 23 14 12 2 24 5 26 6 2 0 -2 -6 -9 -14z m211 -2 c13
-16 12 -17 -3 -4 -10 7 -18 15 -18 17 0 8 8 3 21 -13z"/>
<path d="M3581 5253 c-1 -15 27 -124 34 -131 3 -3 5 -1 5 4 0 15 -38 140 -39
127z"/>
<path d="M3228 1267 c-3 -19 -2 -25 4 -19 6 6 8 18 6 28 -3 14 -5 12 -10 -9z"/>
<path d="M5186 1092 c-3 -5 1 -9 9 -9 8 0 12 4 9 9 -3 4 -7 8 -9 8 -2 0 -6 -4
-9 -8z"/>
<path d="M3320 6280 c-9 -6 -10 -10 -3 -10 6 0 15 5 18 10 8 12 4 12 -15 0z"/>
<path d="M2051 6144 c13 -16 29 -19 29 -5 0 5 -9 11 -21 14 -16 4 -18 3 -8 -9z"/>
<path d="M2257 6073 c-3 -15 -2 -34 3 -42 5 -9 9 -4 12 17 6 41 -8 63 -15 25z"/>
<path d="M3391 6090 c0 -8 4 -22 9 -30 12 -18 12 -2 0 25 -6 13 -9 15 -9 5z"/>
<path d="M2225 6080 c3 -5 8 -10 11 -10 2 0 4 5 4 10 0 6 -5 10 -11 10 -5 0
-7 -4 -4 -10z"/>
<path d="M2217 6039 c7 -7 15 -10 18 -7 3 3 -2 9 -12 12 -14 6 -15 5 -6 -5z"/>
<path d="M2310 6025 c-7 -9 -10 -18 -7 -21 3 -3 10 4 17 15 13 25 8 27 -10 6z"/>
<path d="M3430 5975 c0 -5 5 -17 10 -25 5 -8 10 -10 10 -5 0 6 -5 17 -10 25
-5 8 -10 11 -10 5z"/>
<path d="M3450 5925 c0 -5 5 -17 10 -25 5 -8 10 -10 10 -5 0 6 -5 17 -10 25
-5 8 -10 11 -10 5z"/>
<path d="M3543 5840 c0 -36 2 -50 4 -32 2 17 2 47 0 65 -2 17 -4 3 -4 -33z"/>
<path d="M3480 5851 c0 -6 4 -13 10 -16 6 -3 7 1 4 9 -7 18 -14 21 -14 7z"/>
<path d="M2913 5805 c0 -22 2 -30 4 -17 2 12 2 30 0 40 -3 9 -5 -1 -4 -23z"/>
<path d="M3510 5793 c0 -6 5 -15 10 -18 6 -3 10 -16 10 -29 0 -13 6 -23 14
-23 13 0 13 4 1 26 -23 43 -35 57 -35 44z"/>
<path d="M4961 5738 c0 -14 -4 -35 -7 -45 -5 -17 -5 -17 6 0 6 10 9 30 7 45
l-4 27 -2 -27z"/>
<path d="M2924 5726 c-3 -8 -4 -25 -1 -38 3 -17 5 -14 6 12 2 29 4 32 11 15 7
-16 9 -17 9 -3 1 22 -18 33 -25 14z"/>
<path d="M3516 5674 c-4 -14 -5 -28 -3 -31 3 -2 8 8 11 23 4 14 5 28 3 31 -3
2 -8 -8 -11 -23z"/>
<path d="M4926 5615 c-9 -26 -7 -32 5 -12 6 10 9 21 6 23 -2 3 -7 -2 -11 -11z"/>
<path d="M4911 5564 c0 -11 3 -14 6 -6 3 7 2 16 -1 19 -3 4 -6 -2 -5 -13z"/>
<path d="M3790 5554 c0 -5 7 -19 15 -30 8 -10 15 -14 15 -8 0 5 -7 19 -15 30
-8 10 -15 14 -15 8z"/>
<path d="M2955 5525 c9 -44 62 -144 100 -191 18 -22 64 -58 102 -80 48 -28
111 -83 220 -192 84 -85 153 -157 153 -162 0 -5 -12 -11 -27 -13 -20 -3 -17
-4 13 -6 23 0 47 -8 54 -16 7 -8 17 -15 23 -15 5 0 -13 21 -41 46 -29 26 -78
79 -111 118 -67 80 -208 206 -273 244 -88 51 -143 119 -195 240 -13 32 -21 44
-18 27z"/>
<path d="M4901 5533 c-1 -6 -4 -20 -7 -30 -5 -17 -5 -17 6 0 6 10 9 23 6 30
-3 9 -5 9 -5 0z"/>
<path d="M3773 5453 c-3 -10 -8 -22 -11 -27 -3 -5 0 -6 5 -3 11 7 25 47 17 47
-3 0 -7 -8 -11 -17z"/>
<path d="M4866 5435 c-9 -26 -7 -32 5 -12 6 10 9 21 6 23 -2 3 -7 -2 -11 -11z"/>
<path d="M4977 5415 c17 -31 173 -179 221 -209 69 -43 58 -24 -12 22 -35 23
-99 79 -141 124 -43 46 -73 74 -68 63z"/>
<path d="M3745 5399 c-4 -6 -5 -12 -2 -15 2 -3 7 2 10 11 7 17 1 20 -8 4z"/>
<path d="M4781 5354 c0 -11 3 -14 6 -6 3 7 2 16 -1 19 -3 4 -6 -2 -5 -13z"/>
<path d="M3790 5255 c0 -5 5 -17 10 -25 5 -8 10 -10 10 -5 0 6 -5 17 -10 25
-5 8 -10 11 -10 5z"/>
<path d="M3821 5165 c1 -19 18 -51 18 -35 0 8 -4 22 -9 30 -5 8 -9 11 -9 5z"/>
<path d="M3128 5115 c16 -22 43 -51 58 -65 28 -24 28 -24 9 -1 -11 13 -38 42
-59 65 l-39 41 31 -40z"/>
<path d="M4030 5133 c65 -28 85 -36 103 -40 15 -2 16 -1 5 11 -7 8 -16 12 -20
10 -3 -2 -30 5 -58 16 -59 23 -82 26 -30 3z"/>
<path d="M4071 5014 c-12 -26 -19 -49 -17 -51 2 -3 14 17 25 43 12 26 19 49
17 51 -2 3 -14 -17 -25 -43z"/>
<path d="M3238 5008 c23 -25 130 -89 148 -88 5 1 -16 14 -46 30 -30 17 -71 42
-90 57 l-35 27 23 -26z"/>
<path d="M5446 4960 c-10 -68 -44 -207 -57 -233 -6 -10 -8 -23 -6 -30 10 -29
83 263 75 300 -3 10 -8 -7 -12 -37z"/>
<path d="M4551 4963 c-10 -26 -10 -27 4 -9 8 11 15 23 15 28 0 15 -7 8 -19
-19z"/>
<path d="M4032 4925 c-17 -37 -14 -45 4 -12 9 16 14 31 11 33 -2 2 -9 -7 -15
-21z"/>
<path d="M3430 4900 c8 -5 20 -10 25 -10 6 0 3 5 -5 10 -8 5 -19 10 -25 10 -5
0 -3 -5 5 -10z"/>
<path d="M4360 4789 c-30 -27 -46 -46 -35 -40 19 9 104 91 95 91 -3 0 -30 -23
-60 -51z"/>
<path d="M5035 4774 l-50 -46 53 42 c45 36 59 51 50 50 -2 0 -25 -21 -53 -46z"/>
<path d="M4842 4760 c7 -11 17 -20 22 -20 5 0 1 9 -9 20 -10 11 -20 20 -22 20
-2 0 2 -9 9 -20z"/>
<path d="M5211 4644 c0 -11 3 -14 6 -6 3 7 2 16 -1 19 -3 4 -6 -2 -5 -13z"/>
<path d="M4904 4628 l-19 -23 23 19 c12 11 22 21 22 23 0 8 -8 2 -26 -19z"/>
<path d="M4875 4590 c-4 -6 -11 -8 -16 -4 -5 3 -8 0 -7 -7 2 -7 -2 -13 -9 -14
-17 0 -25 -12 -8 -12 8 0 25 11 37 24 12 13 19 23 15 23 -3 0 -9 -5 -12 -10z"/>
<path d="M715 4580 c3 -5 8 -10 11 -10 2 0 4 5 4 10 0 6 -5 10 -11 10 -5 0 -7
-4 -4 -10z"/>
<path d="M4710 4531 c0 -5 5 -13 10 -16 6 -3 10 -2 10 4 0 5 -4 13 -10 16 -5
3 -10 2 -10 -4z"/>
<path d="M5370 4530 c-9 -6 -10 -10 -3 -10 6 0 15 5 18 10 8 12 4 12 -15 0z"/>
<path d="M4745 4510 c-8 -13 -1 -24 14 -19 6 3 7 10 2 18 -6 10 -10 10 -16 1z"/>
<path d="M711 4469 c5 -10 15 -19 22 -18 8 0 7 2 -2 6 -10 4 -10 7 -1 13 8 5
5 9 -9 13 -18 4 -19 2 -10 -14z"/>
<path d="M820 4480 c0 -5 5 -10 11 -10 5 0 7 5 4 10 -3 6 -8 10 -11 10 -2 0
-4 -4 -4 -10z"/>
<path d="M4751 4461 c-7 -5 -10 -14 -7 -20 11 -17 22 -13 22 9 0 11 0 20 -1
20 0 0 -6 -4 -14 -9z"/>
<path d="M6130 4421 c-6 -12 -7 -21 -1 -21 10 0 24 30 17 37 -2 3 -9 -5 -16
-16z"/>
<path d="M4946 4418 c3 -5 10 -6 15 -3 5 4 9 1 9 -5 0 -6 5 -8 10 -5 19 11 10
25 -14 23 -14 -1 -22 -6 -20 -10z"/>
<path d="M5820 1426 c0 -2 7 -6 15 -10 8 -3 15 -1 15 4 0 6 -7 10 -15 10 -8 0
-15 -2 -15 -4z"/>
</g>
</svg>
